<?xml version="1.0" encoding="UTF-8"?>
<svg id="Layer_1" xmlns="http://www.w3.org/2000/svg" version="1.1" viewBox="0 0 32 32">
  <!-- Generator: Adobe Illustrator 30.1.0, SVG Export Plug-In . SVG Version: 2.1.1 Build 136)  -->
  <defs>
    <style>
      .st0 {
        fill: #fff;
      }
    </style>
  </defs>
  <g>
    <path class="st0" d="M29.14,24.8c.04-.09.08-.19.15-.3,1.4-2.15,2.25-4.58,2.44-7.15l.06-.89c.03-.37,0-.72-.01-1.1-.1-1.92-.49-3.83-1.28-5.58-.16-.02-.33-.07-.35-.15-.03-.11.02-.28.06-.38.04-.14-.11-.43-.23-.51-.07-.04-.25-.09-.34-.13-1.59-2.9-4.03-5.22-7.04-6.58l-.35-.16c-3.65-1.66-7.85-1.68-11.59-.24-.19.07-.32.03-.5-.07-.75.16-.35.39-.61.53l-1.07.57c-.08.04-.26-.02-.4-.08-.09.04-.03.47-.26.49-.09,0-.22-.04-.34-.09l-.51.36-.05.36c-1.2.91-2.25,1.96-3.15,3.17-.09.12-.27.12-.42.11l-.74,1.08c.16-.37.44-.76.66-1.11-.01-.11-.07-.34-.02-.42.94-1.28,2.04-2.38,3.29-3.33l.38.07.49-.38c.02-.12.05-.33.13-.36.12-.05.28-.01.46.03l.1-.41,1.09-.58c.13-.07.3,0,.44.09.13-.04.32-.12.46-.2.07-.06,0-.26.16-.33,7.42-2.99,16.06.09,19.88,7.17.06.11,0,.2-.05.35.15.73.41.43.58.69.06.1,0,.29-.09.4.96,2.23,1.43,4.82,1.26,7.26-.2,2.77-1.05,5.53-2.7,7.79Z"/>
    <path class="st0" d="M2.62,8.06c.18.21.15.38.03.6-1.85,3.4-2.36,7.38-1.41,11.14.4,1.59,1.22,3.46,2.15,4.8,1.32,1.92,3,3.52,5.02,4.69.12.07.14.24.14.39.71.4,1.5.74,2.26,1.04.14-.12.29-.2.48-.13,1.62.55,3.29.8,5,.79.18,0,.31.12.37.25.09-.16.2-.26.35-.27l.93-.08c.16-.01.29.07.42.22.07-.11.18-.25.27-.28.11-.04.27.05.37.17,1.12-.19,2.3-.53,3.35-1.02.04-.2.13-.34.29-.41.84-.39,1.59-.84,2.36-1.36.09-.06.28-.02.38.03.02-.12.04-.29.1-.37.07-.09.29-.07.42,0,.37-.24.63-.59.97-.77-.29.31-.63.6-.91.86,0,.14-.02.34-.11.38-.1.05-.26.03-.4,0,.03.19-.03.36-.22.49-.79.52-1.61,1.02-2.48,1.4-.09.04-.29-.09-.4-.12-1.04.47-2.22.79-3.32,1.03-.07.17-.16.31-.3.31-.1,0-.22-.11-.34-.23-.09.21-.23.32-.46.34l-.86.07c-.14.01-.31-.11-.39-.21-.09.13-.23.23-.43.23-1.83,0-3.61-.27-5.32-.88l-.16-.34c-.79-.3-1.53-.64-2.26-1.03-.07.05-.28.13-.36.09-2.1-1.23-3.91-2.88-5.25-4.92l-.23-.35c-.93-1.42-1.59-2.99-2.01-4.63l-.08-.33c-.98-3.86-.32-7.95,1.63-11.43.07-.13.31-.14.42-.13Z"/>
    <path class="st0" d="M28.53,25.63c.08-.16.51-.81.61-.83-.19.43-.35.59-.61.83Z"/>
    <path class="st0" d="M26.86,27.47l.67-.72.32-.36c.23-.25.43-.52.68-.76-.1.19-.23.38-.39.55l-.37.41c-.27.31-.53.67-.91.87Z"/>
    <path class="st0" d="M2.02,12.57c-.62,2.59-.53,5.25.26,7.78.03.1-.09.26-.14.34l.23.69.33.12c.55,1.31,1.24,2.49,2.13,3.6.05.07.01.27-.01.37l.33.41h.35s.53.55.53.55c.05.05.01.28.01.36l.7.62.37-.03c2.86,2.28,6.44,3.44,10.08,3.13l.29-.03c4.31-.37,8.2-2.68,10.66-6.25l.38-.08.63-1.07-.1-.35c.75-1.42,1.25-2.95,1.49-4.56.03-.2.13-.3.3-.39-.09-.09-.22-.25-.2-.38.15-1.74.04-3.45-.42-5.13-.05-.17-.03-.33.03-.47-.08-.06-.19-.14-.23-.2-.05-.07.02-.28.06-.35-.09-.08-.23-.2-.28-.33-.36-.96-.79-1.85-1.35-2.71-.11-.17-.11-.35-.03-.55-.2,0-.37-.05-.49-.22-1.26-1.74-2.87-3.15-4.75-4.19-.12-.07-.14-.24-.18-.37-.07-.07-.28-.18-.38-.2-.15.08-.3.13-.45.06-1.52-.7-3.12-1.11-4.79-1.24-.18-.01-.25-.14-.37-.27-.09-.09-.27.09-.33.21-.86,0-1.72.03-2.58.16-.16.02-.3-.08-.4-.2-2.65.44-5.17,1.53-7.13,3.34l-.55.51-.43.36c.09-.23.29-.34.46-.49l.47-.43c1.98-1.82,4.52-2.91,7.17-3.36.05-.1.15-.28.23-.29.88-.13,1.74-.18,2.63-.17.21,0,.22.21.37.29.14.07.21-.26.46-.24,1.82.15,3.59.61,5.22,1.39.03.21.1.32.21.4.15.11.36,0,.52-.03,2.05,1.09,3.77,2.64,5.13,4.5.08.1.02.33,0,.44l.38.09c.63.97,1.13,1.97,1.54,3.07.04.11-.02.29-.06.36.07.05.21.15.25.21.05.08-.02.27-.06.36.05.04.22.16.24.24.5,1.79.64,3.59.49,5.43-.02.19-.14.31-.3.38l.22.3c-.23,1.67-.74,3.26-1.49,4.77-.09.18-.24.24-.41.26l-.68,1.12c.04.12.14.23.03.38-4.87,7.11-14.91,8.7-21.73,3.28-.1-.08-.17-.16-.12-.38l-.72-.65h-.34c-.29-.28-.71-.5-.56-.92l-.36-.4c-.19.02-.33,0-.44-.14-.84-1.06-1.5-2.2-2.06-3.44-.09-.2-.05-.32.05-.53-.05-.18-.18-.52-.25-.69-.17-.07-.3-.13-.35-.3-.79-2.65-.88-5.43-.2-8.11l.31-.17.16-.63c-.05-.1-.17-.27-.14-.35.03-.09.18-.2.27-.25-.04-.1-.09-.28-.03-.42.67-1.68,1.6-3.24,2.83-4.57.21.02.35-.02.52-.11-.25.04-.04.38-.12.48-1.09,1.32-2.08,2.78-2.67,4.41-.05.15-.21.25-.3.3.05.09.1.27.06.37-.04.08-.17.14-.32.18l-.2.65c.11.1.21.23.17.37Z"/>
    <path class="st0" d="M8.51,4.28l-.55.43c-.01.2-.04.34-.17.44C3.67,8.33,1.71,13.55,2.72,18.66c.03.14-.07.27-.19.37.25,1.05.61,2.12,1.08,3.07.16,0,.32.05.37.15s.01.24-.04.36c-.13.3.32.17.47.41,1.23,2.07,2.97,3.74,5.06,4.93.11.06.12.3.11.4-.12.08-.31.16-.44.09-2.18-1.23-3.96-2.98-5.25-5.13-.07-.11-.02-.26.03-.39.11-.28-.36-.19-.47-.43-.04-.08.02-.23.09-.35-.44-.98-.83-2-1.06-3.07l-.29-.18c-1.12-5.38.95-10.93,5.33-14.26.1-.08.23-.04.38.01l.4-.26c.07-.04.16-.08.23-.1Z"/>
    <path class="st0" d="M26.19,25.74c1.74-2.01,2.83-3.78,3.52-6.45l-.2-.34c.33-1.47.37-2.95.25-4.44.15-.13.23-.25.21-.41-.03-.18-.08-.29-.35-.37-.72-5.25-4.9-9.63-9.88-10.96-.36-.1-.23-.37-.43-.38-.23-.02-.22.22-.47.17-1.36-.27-2.76-.33-4.14-.2-.07-.02-.2-.15-.27-.22l-.7.11c-.06.11-.16.26-.26.27s-.25-.08-.39-.17c-.07.25-.21.33-.43.39l-1.3.36c-.09.02-.27-.16-.35-.12-.5.24-.15.27-.4.47-.19.15-.32-.17-.61,0l-1.48.82c.41-.36.92-.6,1.44-.85.37-.18.11-.34.34-.47.27-.15.32.24.72,0,.08-.05.13-.23.18-.35.47-.18.96-.33,1.47-.48.13-.04.31.09.41.18.07-.16.15-.33.25-.36.15-.04.31.04.38.21l.7-.09.21-.27c1.44-.16,2.86-.08,4.3.18.14.03.25.19.3.29.14.3.32-.14.62-.06,4.68,1.16,9.78,5.93,10.35,11.41.02.18-.3.24-.18.48.06.12.13.25.32.35.19,1.54.09,3.1-.24,4.63l-.31.21c-.59,2.42-1.79,4.7-3.59,6.45Z"/>
    <path class="st0" d="M23.58,27.86s-.12.13-.17.16c-.94.53-1.87.99-2.9,1.33-1.53.49-3.1.73-4.7.68-.1.17-.22.25-.41.24-1.8-.1-3.52-.51-5.14-1.25l-.13-.34c-.2-.1-.43-.16-.56-.32.21.03.42.16.62.25.16-.09.33-.12.51-.04,1.51.67,3.1,1.03,4.76,1.11.15,0,.27.13.34.2.33.31.75-.09,1.35-.01,1.69.22,4.94-1.15,6.43-2.01Z"/>
    <path class="st0" d="M24.47,27.24c-.14.22-.66.48-.89.61.2-.17.65-.51.89-.61Z"/>
    <path class="st0" d="M26.19,25.74c-.41.4-1.2,1.28-1.72,1.5.02-.03.07-.1.1-.13.48-.36.96-.77,1.38-1.22.06-.06.15-.12.24-.15Z"/>
  </g>
  <g>
    <path class="st0" d="M14.36,19.7c.09-.23.12-.56.44-.64.16-.04.36.16.42.34.2.63-.21.77.15,1.14.12.13.13.37-.07.44-.08-.06-.18-.19-.3-.34-.48.56-.99,1.1-1.61,1.58l.54.57c-.56.92-.97,1.11-1.15,2.37,1.68-.65,3.06-1.45,4.33-2.66l-.39-.93-1.09-2.4c-.14-.31.08-.74.26-1.01l1.17,1.3.12.12s-.02.12-.05.14c-.22.1-.36-.27-.57-.19.17.53.4.97.64,1.45.45.87.37,1.83-.24,2.6-.95,1.19-2.86,2.14-4.29,2.66-.16.72.3,1.98,1.08,1.97s1.79-1.12,2.26-1.71.94-1.19,1.52-1.71c1.34-1.21,2.91-1.51,4.49-2.36l-.23-1.12c-.15-.74-.02-2.02.68-2.43.21-.12.69-.18.9,0,.59.51.85,1.38.73,2.13-.12.79-.52,1.44-1.16,1.93.37.58,1,.88,1.68.79.56-.08,1.12-.36,1.48-.77-.07-.43-.1-.8-.14-1.2l-.11-1.13-.11-.97-.1-.86-.28-2.25-.51-4.02-.1-.81-.13-1.02-.12-.95-.11-.93-.12-.94c-.1-.78-.22-.4.21-1.34.53.72.83,1.5,1.08,2.34l.05.16s-.12.07-.15.04l-.4-.41.08.77.13,1.57.58,4.98.19,1.6.13,1.07.11.91.1.85c.15,1.24.38,3.34-1.01,3.99-.98.46-2.03.47-2.64-.53l-.37-.6c-1.33.55-2.62,1.04-3.84,1.77s-2.2,2.43-3.46,3.48c-.37.31-.84.42-1.27.25-1.12-.44-1.35-1.21-1.54-2.35-1.47.23-3.14.46-4.16-.8-.45-.56-.62-1.26-.67-1.97l-.07-.98c-.6.49-1.09,1.16-2.01.67s-1.37-1.58-1.14-2.63c.15-.7.4-1.34.68-2.01-.62-.2-1.14-.59-1.48-1.18-.31-.53-.25-1.22-.12-1.82.1-.43.74-1.71,1.01-2.12-.6-1.35.48-2.68,1.27-3.72-.12-.64,0-1.28.29-1.89,1.86-1.06,3.75-1.96,5.77-2.68,1.89-.67,3.77-1.24,5.71-1.65.38-.08.84.2.95.51.33.95-1.08,2.64-1.71,3.31-.39.42-.81.9-1.15,1.35-.01.01-.07.06-.08.07-.02.02-.07-.07-.05-.11.72-1.83,2.76-2.91,2.5-3.7-.04-.12-.19-.34-.36-.34-.49,0-.96,0-1.43.08-1.27.24-2.11.65-3.33.99l-3.25,1.27c-1.22.47-2.35,1.03-3.49,1.7l5.74,4c.78-.41,1.61-.59,2.52-.52l-.66-2.42c-.17-.84-.46-1.88.1-2.73l.93,1.88c-.19-.05-.28-.1-.49-.2.07.99.28,1.96.77,2.84.32.58.85.91,1.33,1.33.24.32.15.85.02,1.25-.92-.89-2.21-1.2-3.41-.72,1.55,1.23,3,2.46,4.44,3.75.3.27.6.46,1,.64l-.1-1.11-.37-3.17-.22-1.68-.11-.91-.12-1.07c-.08-.71-.21-1.05.14-1.67.48.58,1.06,1.76,1.14,2.51l-.54-.42.18,1.62.32,2.47.25,1.95.08.75.1.76c.26.45,1.64-.19,1.86-.6l-.18-1.59-.13-1.16-.11-.76-.44-3.32-.77-5.34c-.07-.47-.1-.86.22-1.36l.54.94c.27.47.47.98.61,1.54-.34-.01-.3-.3-.61-.39l.06.66c.06.73.15,1.42.25,2.15l.38,2.75.15,1.06.1.72.25,1.77.18,1.26c.23,1.61-.6,2.51-2.13,2.91-.02.87.1.82.04,1.76-.15,2.15-.59,2.4-.51,1.96.07-.38.06-.79.03-1.18l-.12-1.46c-.03-.38-.08-.73-.13-1.11-.73-.23-1.27-.64-1.82-1.15l-2.47-2.26c-.35-.32-.73-.62-1.16-.82.57.7,1.08,1.22,1.31,2.02.15.53.22,1.14-.04,1.65-.2.41-.61.66-.99.88-1.69.96-4.11.98-5.58,2.9-.04.38-.02.81.05,1.17.4,2.11,2.85,2.44,4.54,1.8l.78-1.95-.67-.67c.14-.25.29-.46.49-.7l.33.08c.53-.46,1.08-.96,1.47-1.6-.3-.18-.47-.44-.34-.78ZM3.91,17.56c.36.45,1.05.44,1.5.15,1.81-1.14,2.4-1.85,3.89-3.24l.99-.92-4.56-3.47c-.6.81-1.23,1.61-.9,2.61.02.06.11.14.17.14.04,0,.15-.04.18-.07l.31-.36s.1-.03.13-.03.04.11.03.14c-.21.59-.65,1.13-1.21,1.45-.48,1-1.33,2.59-.52,3.59ZM7.1,21.78c1.99-2.31,4.79-2.19,7.08-3.93-.39-1.04-1.16-1.94-1.99-2.65l-1.12-.94c-.63.43-1.16.85-1.7,1.35l-2.17,1.98c-.58.53-1.24.87-1.97,1.17-.58,1.08-1.27,2.93-.16,3.91.8.37,1.5-.29,2.02-.89ZM14.97,19.97c.04-.17-.15-.39-.3-.4-.12.2.13.51.3.4ZM23.02,21.84c.21-.12.59-.32.64-.58.11-.65-.53-1.7-1.06-1.5-.9.34-.36,1.76,0,2.33l.42-.24Z"/>
    <path class="st0" d="M23.39,12.98c.29,2.59-.38,3.51-.34,3,.04-.63-.06-2.32-.34-2.92-.33.22-.91.78-1.2.75-.13,0,1.09-1,1.17-1.15l-.21-1.67-.36-2.75-.27-1.72-.09-.5c-.12-.61-.2-.71.21-1.46.53.83.98,1.7,1.17,2.64-.2-.07-.3-.2-.42-.33l-.07-.07s-.11-.02-.11,0,.04.13.05.16l.73,5.03c.2-.16.3-.34.41-.52-.15-.24-.34-.44-.38-.72-.04-.26.32-.63.57-.62.4.17.44.69.31,1.04-.08.21-.09.39-.09.65l-.28.03-.5.63c-.08.1.02.34.04.49ZM23.93,11.05c.18-.14-.01-.5-.22-.42-.07.03-.05.23-.02.3.03.06.18.16.24.12Z"/>
    <path class="st0" d="M28.19,20.25c-.03.35-.21.69-.33,1.03-.17-.13-.09-.34-.11-.52l-.11-1.57-.13-1.61-.1-.87-.12-.91-.13-.93-.65-4.58c-.05-.34-.27-.2.18-1.19.59.92.95,1.44,1.24,2.49-.29-.04-.32-.25-.62-.42.05.58.11,1.13.19,1.69l.1.72.12.83.1.65c.24,1.6.49,3.53.36,5.18Z"/>
    <path class="st0" d="M24.67,16.98c.05.05-.35.73-.58.77l-.84-.73-.52.69c-.37-.2-.68-.49-.93-.81l.45-.78c.39.08.88.86,1.04.62l.43-.62c.35.18.56.42.81.71l.14.16Z"/>
    <path class="st0" d="M9.05,5.43c-.15.06-.22.19-.37.11.13-.3.37-.46.66-.6,1.15-.52,2.32-.94,3.5-1.39l1.09-.42c-.1.37-.42.52-.74.65l-4.14,1.64Z"/>
    <path class="st0" d="M9.42,23.07c.03.05.06.17.05.22s-.14.12-.18.09c-.1-.07-.29-.26-.35-.37-.08-.34.13-.73.45-.88l3.26-1.42c.1-.04.24-.16.29-.06-.11.38-.45.54-.78.68-1.02.43-1.99.84-2.98,1.35l.24.39Z"/>
    <path class="st0" d="M20.94,27.84c-.25.1-.19-.77-.78-.99-.23-.09-.44-.07-.52-.33-.05-.17-.13-.47.1-.59.21,0,.53.25.66.45l.47.72.1-.97c.02-.17.21-.48.37-.51.26-.05.49.27.52.45,0,.06-.08.2-.14.22-.06.02-.17-.05-.24-.11l-.16-.12s-.17.06-.17.12c0,.45-.04,1.22-.21,1.65Z"/>
    <path class="st0" d="M11.45,11.09c-.16-.33-.42-.32-.7-.4-.21-.06-.3-.51-.13-.67.12-.11.41.02.53.13.25.24.39.5.62.83.07-.45-.02-1.46.58-1.65.14-.04.33.12.38.22.06.13,0,.41-.14.42-.14-.11-.26-.24-.43-.24-.22.21-.08,2.17-.32,2.03-.03-.01-.09-.07-.1-.09l-.29-.58Z"/>
    <path class="st0" d="M11.17,24.82c-.1.46-.36-.68-.82-.81l-.34-.09c-.11-.17-.11-.54.07-.64.44.13.63.57.94.92.05-.33-.06-1.42.31-1.52.16-.05.47.24.51.39.02.08-.09.26-.16.28l-.37-.28s-.09.17-.08.22c.07.52.05,1.02-.06,1.53Z"/>
    <path class="st0" d="M16.5,11.85c0,.34-.44-.76-.93-.87-.24-.06-.56-.1-.56-.4,0-.05,0-.13.02-.16,0-.04.14-.07.18-.06.42.11.7.41,1.02.73l.07-.46c.05-.3.1-.65.4-.82.09-.05.26.05.31.13.06.09.09.29.04.38-.08.13-.22-.09-.4-.13-.05-.01-.15.12-.15.17v1.33s0,.16,0,.16Z"/>
    <path class="st0" d="M15.86,22.39c-.08.37-.41.63-.75.65-.1,0-.29-.08-.34-.15-.19-.25,0-1.03.16-1.39.44.07,1.04.39.93.9ZM15.61,22.37c-.06-.2-.39-.45-.58-.38-.15.07-.16.51-.03.61.17.13.58-.02.61-.23Z"/>
    <path class="st0" d="M18.95,7.46c-.11.18-.36.42-.56.43-.35.02-.53-.36-.47-.66l.17-.8c.3,0,.57.09.77.29s.25.47.08.73ZM18.78,7.18c-.04-.18-.38-.37-.51-.29-.16.09-.17.5-.03.59.18.13.6-.07.55-.3Z"/>
    <path class="st0" d="M20.65,21.41c-.54.25-.76.66-.88.4l.35-.43-.35-.52c.11-.3.36-.53.66-.59.07-.01.18.14.19.21s-.05.24-.11.22c-.12-.05-.24-.11-.31-.09-.09.02-.18.19-.12.27.3.37.79.02,1,.02.04,0,.14.25-.43.51Z"/>
    <path class="st0" d="M19.46,13.55c.05-.18.1-.32.22-.35.17.24.12.64-.12.81-.17.12-.39-.05-.48-.21-.28-.6-.31-1.31.03-1.93.24.45-.43,1.23.34,1.69Z"/>
    <path class="st0" d="M8.88,9.4l.31-.1c.02.13,0,.28-.07.38-.06.09-.25.2-.35.16-.68-.22-.23-1.71.02-2.19.29.27-.45,1.22.09,1.74Z"/>
    <path class="st0" d="M11.15,8.79l.31-.13c.1.23-.09.55-.34.57-.75.06-.33-1.81-.07-2.18.3.34-.44,1.11.1,1.74Z"/>
    <path class="st0" d="M24.61,14.91c.09.3-.05.61-.29.73-.14.08-.36-.17-.38-.32-.1-.64-.08-1.3.27-1.9.13.46-.41,1.25.13,1.76l.27-.26Z"/>
    <path class="st0" d="M16.89,15.69l.34-.23c.12.22-.11.62-.35.64-.68.05-.4-1.67-.05-1.99.11.42-.41,1.07.06,1.57Z"/>
    <path class="st0" d="M25.21,21.89l.1-.13s.11.11.1.15c-.03.17-.19.51-.4.55-.68.12-.33-1.92,0-2.1l-.15.79c-.05.28-.04.76.22.87.03.01.07-.07.11-.12Z"/>
    <path class="st0" d="M21.59,9.17c.18.25-.02.7-.23.74-.1.02-.25-.07-.32-.17-.36-.51-.2-1.18.01-1.77.22.31-.28,1.13.28,1.51l.25-.31Z"/>
    <path class="st0" d="M23.39,25.98c.13.3-.09.7-.36.83-.21.1-.38-.24-.39-.43-.04-.53.06-1.04.25-1.57.32.2-.36,1.06.15,1.62l.36-.45Z"/>
    <path class="st0" d="M28.82,15.24s.02.27,0,.36c-.01.1-.2.19-.32.2-.56-.48-.26-1.51-.15-2.17.25.46-.12,1.03.13,1.71l.32-.09Z"/>
    <path class="st0" d="M11.7,27.59c.09.28-.07.53-.28.66-.15.08-.36-.1-.41-.25-.13-.41-.07-.87.1-1.25.37-.03-.22.7.3,1.09l.29-.24Z"/>
    <path class="st0" d="M15.14,7.17c.07.03.26-.23.32-.16.08.27-.15.6-.42.65-.42-.47-.38-1.22-.09-1.8.28.19-.31,1.09.18,1.31Z"/>
    <path class="st0" d="M6.8,24.63c.16-.04.26-.06.32-.06.04.24-.16.51-.37.51-.51.01-.41-1.32.03-1.6.23-.14-.42.84.02,1.14Z"/>
    <path class="st0" d="M20.22,16.16l-1.26.71c-.13-.22.05-.3.19-.39l1.33-.77c.11.23-.08.35-.26.45Z"/>
    <path class="st0" d="M11.84,18.15l-.88-.74-.55.68c-.36-.23-.65-.51-.91-.82l.48-.8c.35.23.6.45.92.75.29-.22.43-.92.69-.65l.79.8c-.15.28-.27.46-.55.77Z"/>
    <path class="st0" d="M8.42,19.79c-.07.65-.41-.54-.71-.69-.24.07-.44,0-.57-.22-.1-.17-.03-.56.18-.6.41.17.59.54.91.9.13-.3.05-1.19.41-1.36.23-.11.53.23.5.43-.01.09-.07.21-.12.23-.17.06-.4-.56-.45-.1l-.16,1.4Z"/>
    <path class="st0" d="M6.1,20.97l.31-.3c.15.23-.02.67-.31.71-.72.1-.34-1.63.01-2,.17.3-.45,1.04-.01,1.59Z"/>
    <path class="st0" d="M7.62,13.67c-.43.65-.82,1.19-1.4,1.66-.5.41-.96.85-1.54,1.16.39-.53.87-.86,1.3-1.3.51-.51,1-1.02,1.39-1.62-.28-.18-.43-.41-.45-.65-.02-.29.08-.54.34-.7.08-.05.26-.08.34-.05.38.14.14.8.15,1.04.16.19.39.51.41.74,0,.03-.07.14-.11.13-.27-.12-.1-.17-.44-.39ZM7.5,13.03c.09-.01.08-.25.02-.33-.05-.07-.25-.09-.29.04-.03.1.17.31.27.29Z"/>
  </g>
</svg>