<?xml version="1.0" encoding="UTF-8"?>
<svg id="Layer_1" xmlns="http://www.w3.org/2000/svg" version="1.1" viewBox="0 0 512 512">
  <!-- Generator: Adobe Illustrator 30.2.1, SVG Export Plug-In . SVG Version: 2.1.1 Build 1)  -->
  <defs>
    <style>
      .st0 {
        fill: #fff;
      }

      .st1 {
        fill: #0f172a;
      }
    </style>
  </defs>
  <rect class="st1" width="512" height="512"/>
  <g>
    <g>
      <path class="st0" d="M427.12,370.56c.56-1.23,1-2.49,1.95-3.97,18.24-27.95,29.36-59.65,31.79-93.08l.83-11.53c.35-4.82.12-9.39-.15-14.3-1.35-25-6.42-49.89-16.71-72.64-2.06-.23-4.24-.85-4.57-1.97-.42-1.41.31-3.62.77-4.99.56-1.77-1.43-5.55-3.01-6.59-.87-.58-3.26-1.14-4.43-1.7-20.74-37.71-52.53-67.92-91.63-85.69l-4.53-2.06c-47.5-21.57-102.18-21.8-150.99-3.1-2.49.96-4.22.39-6.5-.89-9.74,2.14-4.51,5.09-8,6.94l-13.88,7.36c-1.08.56-3.37-.31-5.26-1.1-1.18.56-.33,6.17-3.43,6.34-1.21.06-2.83-.46-4.38-1.12l-6.65,4.65-.6,4.72c-15.62,11.88-29.23,25.49-40.97,41.35-1.16,1.58-3.47,1.56-5.46,1.39l-9.58,14.07c2.12-4.84,5.71-9.83,8.62-14.48-.19-1.37-.98-4.4-.23-5.44,12.26-16.68,26.53-30.98,42.91-43.36l4.99.87,6.4-4.95c.27-1.54.64-4.24,1.75-4.63,1.6-.58,3.59-.15,5.96.44l1.29-5.3,14.13-7.56c1.64-.87,3.93,0,5.78,1.18,1.64-.52,4.2-1.6,6-2.62.87-.75-.08-3.45,2.04-4.3,96.66-38.96,209.11,1.16,258.83,93.35.77,1.41.1,2.66-.66,4.53,1.91,9.54,5.38,5.59,7.56,8.93.83,1.27.06,3.8-1.21,5.24,12.47,28.98,18.66,62.81,16.39,94.58-2.56,36.05-13.73,71.99-35.2,101.44h.04Z"/>
      <path class="st0" d="M81.75,152.63c2.35,2.72,1.93,4.95.39,7.75-24.12,44.3-30.73,96.06-18.33,145.03,5.24,20.63,15.92,45.07,27.97,62.54,17.2,24.95,39.04,45.79,65.3,61.11,1.62.96,1.87,3.1,1.83,5.13,9.2,5.15,19.55,9.66,29.48,13.57,1.85-1.62,3.76-2.56,6.25-1.7,21.11,7.15,42.8,10.37,65.1,10.24,2.29,0,4.01,1.56,4.84,3.24,1.1-2.08,2.62-3.32,4.55-3.49l12.15-1.1c2.02-.19,3.8.96,5.44,2.83.98-1.37,2.37-3.26,3.51-3.7,1.45-.56,3.45.71,4.8,2.22,14.54-2.53,29.92-6.88,43.57-13.21.46-2.53,1.62-4.38,3.78-5.36,10.93-5.05,20.69-10.95,30.69-17.74,1.21-.81,3.62-.21,4.92.37.21-1.54.5-3.82,1.33-4.82.96-1.14,3.74-.93,5.46-.1,4.88-3.08,8.21-7.69,12.63-10.08-3.78,4.05-8.14,7.77-11.82,11.14.04,1.77-.25,4.4-1.39,4.97-1.35.69-3.39.42-5.28-.08.37,2.49-.42,4.74-2.8,6.34-10.24,6.77-20.99,13.28-32.33,18.18-1.12.48-3.82-1.16-5.17-1.58-13.57,6.13-28.92,10.31-43.3,13.36-.85,2.16-2.12,4.05-3.97,4.05-1.31,0-2.93-1.39-4.43-2.97-1.18,2.72-3.03,4.24-5.98,4.47l-11.14.89c-1.85.15-3.97-1.43-5.13-2.78-1.12,1.66-2.93,3.01-5.55,3.01-23.77.06-46.94-3.53-69.29-11.43l-2.14-4.38c-10.24-3.89-19.95-8.37-29.46-13.36-.98.64-3.7,1.75-4.63,1.18-27.38-16-50.93-37.46-68.3-64.06l-2.99-4.57c-12.09-18.51-20.76-38.88-26.16-60.28l-1.08-4.3c-12.72-50.26-4.2-103.54,21.21-148.77.96-1.72,4.01-1.77,5.44-1.75h0Z"/>
      <path class="st0" d="M419.16,381.43c1.08-2.1,6.63-10.51,7.96-10.87-2.51,5.65-4.61,7.69-7.96,10.87Z"/>
      <path class="st0" d="M397.45,405.3l8.73-9.33,4.13-4.63c2.93-3.3,5.55-6.79,8.87-9.91-1.27,2.45-3.01,4.88-5.07,7.19l-4.84,5.38c-3.57,3.99-6.92,8.69-11.82,11.32v-.02Z"/>
      <path class="st0" d="M74,211.39c-8.08,33.68-6.94,68.3,3.32,101.33.39,1.27-1.1,3.41-1.87,4.49l2.97,8.98,4.28,1.58c7.11,17.02,16.1,32.39,27.7,46.85.69.85.17,3.55-.17,4.84l4.3,5.34h4.57l6.92,7.11c.69.71.17,3.66.17,4.65l9.1,8.1,4.84-.46c37.21,29.73,83.9,44.84,131.27,40.79l3.8-.33c56.18-4.82,106.8-34.95,138.79-81.43l4.92-1.02,8.14-13.94-1.35-4.55c9.72-18.55,16.33-38.46,19.39-59.32.37-2.56,1.72-3.89,3.93-5.13-1.12-1.18-2.8-3.22-2.64-4.97,1.97-22.69.54-44.9-5.46-66.76-.6-2.2-.35-4.26.39-6.09-1.04-.79-2.41-1.83-3.01-2.58-.69-.85.33-3.66.73-4.55-1.21-1-2.95-2.53-3.62-4.3-4.74-12.51-10.28-24.14-17.58-35.3-1.45-2.22-1.43-4.53-.42-7.17-2.58-.12-4.8-.71-6.38-2.89-16.41-22.67-37.34-41.06-61.83-54.54-1.54-.85-1.85-3.12-2.29-4.76-.85-.93-3.66-2.29-4.97-2.6-1.89.98-3.84,1.68-5.86.77-19.86-9.06-40.56-14.5-62.42-16.14-2.33-.17-3.22-1.81-4.84-3.57-1.12-1.21-3.49,1.14-4.28,2.76-11.18.1-22.4.37-33.6,2.06-2.12.31-3.89-1-5.17-2.58-34.45,5.76-67.26,19.88-92.88,43.45l-7.21,6.65-5.63,4.7c1.12-3.03,3.8-4.43,6-6.44l6.13-5.63c25.74-23.67,58.84-37.96,93.35-43.7.66-1.31,1.95-3.66,3.01-3.82,11.41-1.75,22.63-2.33,34.22-2.24,2.72.02,2.85,2.78,4.88,3.76,1.87.91,2.68-3.39,6.03-3.12,23.75,1.93,46.75,7.9,67.98,18.14.39,2.74,1.27,4.18,2.78,5.26,1.95,1.39,4.65.1,6.77-.44,26.74,14.17,49.12,34.32,66.82,58.66,1,1.35.21,4.32-.12,5.78l4.9,1.23c8.21,12.63,14.77,25.72,20.09,39.93.54,1.45-.25,3.8-.81,4.7.91.66,2.7,1.89,3.22,2.78.6,1.02-.23,3.49-.73,4.72.66.5,2.85,2.04,3.14,3.08,6.44,23.25,8.37,46.73,6.38,70.75-.21,2.51-1.79,4.03-3.97,4.97l2.87,3.93c-3.03,21.77-9.58,42.41-19.41,62.06-1.14,2.31-3.1,3.12-5.4,3.37l-8.89,14.63c.52,1.62,1.79,2.95.44,4.95-63.45,92.63-194.15,113.26-282.99,42.7-1.31-1.04-2.26-2.14-1.56-5.01l-9.41-8.41-4.4.06c-3.78-3.72-9.29-6.59-7.36-12.05l-4.72-5.22c-2.53.23-4.26-.06-5.67-1.87-10.95-13.82-19.57-28.65-26.78-44.76-1.14-2.56-.6-4.13.64-6.88-.71-2.37-2.31-6.71-3.28-9.02-2.2-.96-3.93-1.64-4.59-3.89-10.26-34.51-11.43-70.64-2.64-105.65l4.01-2.22,2.08-8.17c-.71-1.27-2.2-3.53-1.81-4.61.44-1.18,2.39-2.58,3.55-3.24-.52-1.33-1.12-3.64-.37-5.51,8.77-21.92,20.82-42.2,36.84-59.53,2.68.29,4.51-.27,6.82-1.5-3.26.56-.54,4.99-1.56,6.25-14.25,17.25-27.05,36.24-34.8,57.49-.71,1.91-2.72,3.22-3.97,3.86.58,1.12,1.37,3.53.77,4.8-.5,1.06-2.26,1.85-4.13,2.31l-2.66,8.41c1.39,1.31,2.68,2.99,2.24,4.84l-.02.04Z"/>
      <path class="st0" d="M158.55,103.42l-7.19,5.63c-.15,2.56-.56,4.49-2.22,5.76-53.65,41.37-79.18,109.27-66.07,175.8.37,1.89-.93,3.55-2.45,4.84,3.3,13.65,7.87,27.57,14.02,40.04,2.14.08,4.24.64,4.82,1.95s.17,3.12-.56,4.76c-1.75,3.84,4.22,2.24,6.09,5.38,16.06,26.91,38.65,48.64,65.93,64.16,1.43.81,1.52,3.89,1.5,5.17-1.6,1.08-4.05,2.12-5.71,1.16-28.38-16.06-51.59-38.83-68.38-66.74-.87-1.45-.27-3.43.35-5.03,1.37-3.59-4.7-2.51-6.17-5.61-.48-1,.29-3.05,1.16-4.61-5.73-12.74-10.87-26.1-13.84-40.02l-3.8-2.31c-14.59-70.1,12.34-142.35,69.42-185.73,1.29-.98,2.95-.54,4.95.15l5.26-3.41c.85-.56,2.14-1.08,2.97-1.33l-.06-.02Z"/>
      <path class="st0" d="M388.77,382.86c22.67-26.18,36.88-49.16,45.9-84l-2.53-4.45c4.36-19.16,4.86-38.36,3.26-57.78,1.91-1.64,2.97-3.24,2.68-5.28-.33-2.35-1.08-3.76-4.61-4.8-9.33-68.36-63.75-125.39-128.7-142.66-4.65-1.25-2.99-4.8-5.53-5.01-2.99-.25-2.89,2.91-6.09,2.29-17.76-3.51-35.99-4.28-53.88-2.53-.89-.25-2.58-1.95-3.49-2.85l-9.16,1.37c-.77,1.48-2.02,3.43-3.39,3.57s-3.3-1.06-5.11-2.2c-.93,3.3-2.7,4.3-5.57,5.09l-16.87,4.67c-1.12.31-3.57-2.06-4.57-1.56-6.52,3.18-1.95,3.55-5.24,6.13-2.47,1.95-4.13-2.22-7.98-.04l-19.32,10.64c5.32-4.74,11.93-7.83,18.72-11.12,4.76-2.31,1.5-4.45,4.45-6.11,3.55-2.02,4.16,3.12,9.31.06,1.02-.6,1.75-3.01,2.39-4.57,6.07-2.41,12.55-4.32,19.18-6.19,1.68-.48,3.97,1.23,5.38,2.33.87-2.1,1.97-4.3,3.3-4.67,1.97-.56,3.99.56,4.95,2.68l9.06-1.16,2.78-3.57c18.8-2.12,37.3-1.1,55.95,2.35,1.87.35,3.3,2.51,3.91,3.8,1.85,3.89,4.16-1.81,8.12-.83,60.88,15.08,127.33,77.25,134.78,148.62.23,2.29-3.95,3.08-2.31,6.32.77,1.52,1.7,3.2,4.18,4.51,2.41,20.11,1.14,40.37-3.14,60.23l-4.01,2.72c-7.73,31.54-23.33,61.23-46.79,84.02l-.02-.02Z"/>
      <path class="st0" d="M354.73,410.37c-.54.48-1.52,1.7-2.24,2.12-12.22,6.94-24.29,12.94-37.73,17.27-19.95,6.4-40.31,9.5-61.15,8.89-1.29,2.18-2.85,3.28-5.32,3.14-23.37-1.31-45.86-6.61-66.99-16.33l-1.66-4.4c-2.64-1.27-5.57-2.08-7.27-4.16,2.68.37,5.4,2.1,8.04,3.3,2.14-1.12,4.34-1.6,6.69-.56,19.68,8.69,40.31,13.38,61.92,14.42,1.93.08,3.45,1.68,4.49,2.66,4.3,4.09,9.79-1.14,17.54-.15,22.07,2.85,64.27-15.04,83.69-26.22v.02Z"/>
      <path class="st0" d="M366.33,402.42c-1.87,2.91-8.6,6.23-11.57,7.96,2.56-2.26,8.44-6.61,11.57-7.96Z"/>
      <path class="st0" d="M388.77,382.86c-5.34,5.19-15.69,16.62-22.44,19.55.25-.37.87-1.31,1.33-1.64,6.27-4.67,12.55-10.06,17.99-15.89.75-.81,1.93-1.5,3.12-1.99v-.02Z"/>
    </g>
    <g>
      <path class="st0" d="M234.7,304.18c1.21-3.05,1.56-7.33,5.67-8.33,2.08-.52,4.74,2.08,5.49,4.4,2.62,8.17-2.74,10.04,1.93,14.84,1.6,1.64,1.66,4.78-.89,5.71-1.06-.85-2.35-2.43-3.91-4.45-6.27,7.33-12.94,14.36-20.94,20.59l7.09,7.38c-7.25,12.01-12.61,14.44-15,30.85,21.94-8.46,39.81-18.85,56.39-34.64l-5.03-12.18-14.23-31.19c-1.83-4.01,1.08-9.58,3.35-13.19l15.29,16.89,1.6,1.54c.35.35-.21,1.58-.66,1.79-2.93,1.37-4.65-3.53-7.48-2.43,2.24,6.96,5.17,12.63,8.33,18.82,5.82,11.37,4.78,23.87-3.18,33.78-12.38,15.48-37.25,27.82-55.87,34.59-2.1,9.41,3.91,25.85,14.05,25.68,10.2-.17,23.29-14.63,29.46-22.27,6.17-7.65,12.24-15.48,19.78-22.27,17.49-15.75,37.9-19.61,58.41-30.69l-2.97-14.63c-1.97-9.66-.29-26.26,8.87-31.58,2.74-1.6,8.91-2.37,11.7.04,7.69,6.69,11.12,17.95,9.56,27.78-1.62,10.33-6.82,18.7-15.13,25.14,4.76,7.56,13.05,11.49,21.84,10.24,7.27-1.04,14.54-4.63,19.24-10.04-.87-5.59-1.33-10.39-1.85-15.67l-1.41-14.77-1.39-12.63-1.35-11.14-3.72-29.25-6.65-52.32-1.35-10.58-1.64-13.21-1.52-12.38-1.48-12.05-1.54-12.22c-1.29-10.2-2.8-5.15,2.72-17.41,6.94,9.37,10.83,19.59,14.07,30.46l.6,2.06c.15.48-1.62.87-1.97.52l-5.17-5.36,1.08,10.08,1.72,20.47,7.56,64.85,2.47,20.82,1.66,13.9,1.43,11.91,1.37,11.12c1.99,16.17,5.01,43.47-13.13,51.94-12.74,5.94-26.39,6.13-34.43-6.96l-4.8-7.79c-17.27,7.11-34.12,13.55-50.05,23-16.68,9.89-28.71,31.64-45.11,45.34-4.78,3.99-10.95,5.51-16.54,3.3-14.54-5.73-17.64-15.81-20.03-30.65-19.18,3.01-40.85,6.03-54.13-10.35-5.9-7.27-8.02-16.39-8.73-25.66l-.98-12.72c-7.85,6.4-14.17,15.04-26.14,8.77-12.34-6.46-17.85-20.63-14.9-34.28,1.97-9.14,5.22-17.41,8.91-26.16-8.08-2.64-14.86-7.71-19.22-15.33-3.97-6.94-3.3-15.87-1.52-23.64,1.27-5.59,9.7-22.23,13.17-27.61-7.83-17.56,6.3-34.89,16.56-48.5-1.54-8.35-.08-16.71,3.72-24.6,24.21-13.82,48.85-25.51,75.15-34.84,24.6-8.73,49.16-16.17,74.36-21.53,4.9-1.04,10.97,2.64,12.34,6.59,4.26,12.32-14.13,34.35-22.27,43.05-5.07,5.42-10.56,11.72-15.02,17.54-.15.19-.87.73-1.04.89-.25.23-.85-.96-.69-1.41,9.37-23.77,35.97-37.92,32.6-48.14-.54-1.6-2.43-4.38-4.72-4.4-6.42-.06-12.49-.08-18.6,1.08-16.56,3.18-27.53,8.5-43.4,12.88l-42.32,16.48c-15.83,6.17-30.65,13.4-45.44,22.15l74.76,52.05c10.16-5.38,21.01-7.67,32.79-6.75l-8.62-31.54c-2.24-10.93-6.05-24.46,1.31-35.53l12.18,24.43c-2.53-.66-3.7-1.35-6.38-2.56.87,12.84,3.7,25.58,10.08,36.92,4.22,7.5,11.05,11.88,17.35,17.37,3.08,4.16,1.97,11.12.31,16.31-11.97-11.59-28.78-15.67-44.42-9.43,20.18,16.02,39.04,32.04,57.8,48.81,3.97,3.55,7.81,5.92,12.99,8.35l-1.31-14.42-4.86-41.29-2.83-21.9-1.48-11.91-1.6-13.92c-1.06-9.31-2.8-13.69,1.87-21.71,6.27,7.54,13.8,22.9,14.88,32.75l-7.04-5.46,2.31,21.07,4.13,32.14,3.26,25.41,1.04,9.74,1.31,9.95c3.41,5.9,21.34-2.41,24.16-7.85l-2.31-20.65-1.75-15.11-1.37-9.85-5.73-43.26-10.04-69.58c-.87-6.11-1.27-11.24,2.89-17.66l7,12.28c3.51,6.15,6.11,12.7,8,20.03-4.36-.15-3.89-3.84-8-5.05l.73,8.6c.79,9.45,1.97,18.49,3.28,27.99l4.88,35.76,1.89,13.82,1.27,9.41,3.22,23,2.29,16.35c2.93,20.99-7.77,32.68-27.68,37.88-.21,11.34,1.29,10.74.46,22.92-1.91,27.95-7.71,31.25-6.67,25.45.87-4.95.79-10.31.35-15.35l-1.62-18.99c-.42-4.92-.98-9.52-1.72-14.46-9.47-2.97-16.56-8.37-23.73-14.94l-32.21-29.48c-4.57-4.2-9.54-8.04-15.13-10.68,7.48,9.06,14.07,15.92,17.06,26.35,1.97,6.88,2.85,14.81-.48,21.5-2.64,5.28-7.98,8.62-12.94,11.45-22.07,12.53-53.56,12.74-72.62,37.82-.46,4.95-.23,10.53.66,15.29,5.22,27.45,37.13,31.81,59.17,23.4l10.12-25.39-8.75-8.69c1.81-3.3,3.82-6.03,6.38-9.16l4.26,1.1c6.9-5.96,14.11-12.53,19.14-20.8-3.91-2.41-6.13-5.71-4.4-10.12h.08ZM98.65,276.34c4.76,5.9,13.61,5.69,19.53,1.95,23.6-14.86,31.25-24.12,50.61-42.16l12.86-11.97-59.4-45.25c-7.87,10.56-15.96,20.94-11.66,34.03.25.73,1.48,1.83,2.18,1.83.56,0,1.99-.48,2.39-.93l4.05-4.67c.23-.27,1.29-.37,1.66-.39s.52,1.39.39,1.79c-2.7,7.67-8.44,14.73-15.77,18.95-6.3,12.99-17.37,33.68-6.84,46.79l-.02.04ZM140.1,331.23c25.87-30.13,62.4-28.55,92.17-51.22-5.05-13.48-15.15-25.2-25.89-34.47l-14.59-12.18c-8.19,5.63-15.06,11.1-22.17,17.58l-28.22,25.81c-7.5,6.86-16.14,11.32-25.64,15.19-7.6,14.11-16.48,38.21-2.04,50.86,10.41,4.88,19.59-3.72,26.35-11.57h.02ZM242.61,307.75c.52-2.24-1.99-5.03-3.93-5.24-1.58,2.56,1.64,6.65,3.93,5.24ZM347.48,332.02c2.68-1.56,7.69-4.16,8.29-7.6,1.48-8.41-6.94-22.19-13.8-19.59-11.66,4.43-4.67,22.92.08,30.31l5.4-3.14.02.02Z"/>
      <path class="st0" d="M352.28,216.73c3.72,33.68-4.9,45.71-4.45,39.06.56-8.21-.83-30.21-4.4-38-4.32,2.87-11.8,10.12-15.69,9.83-1.68-.12,14.21-12.99,15.27-14.98l-2.7-21.77-4.72-35.86-3.47-22.4-1.23-6.44c-1.52-7.92-2.58-9.2,2.7-18.95,6.84,10.8,12.74,22.15,15.29,34.41-2.62-.85-3.84-2.53-5.53-4.34l-.87-.93c-.27-.29-1.48-.27-1.39.1s.52,1.64.6,2.14l9.54,65.43c2.6-2.08,3.95-4.36,5.32-6.77-1.99-3.08-4.43-5.67-4.92-9.35-.46-3.39,4.22-8.21,7.4-8.06,5.15,2.2,5.76,9,4.03,13.53-1.06,2.78-1.23,5.11-1.23,8.5l-3.59.37-6.46,8.21c-1.06,1.35.31,4.45.52,6.32l-.02-.02ZM359.28,191.48c2.33-1.85-.17-6.5-2.89-5.51-.96.35-.71,3.03-.19,3.93.42.75,2.41,2.12,3.08,1.58Z"/>
      <path class="st0" d="M414.8,311.33c-.35,4.55-2.7,8.96-4.28,13.44-2.2-1.7-1.21-4.38-1.37-6.75l-1.45-20.4-1.64-21.03-1.33-11.28-1.6-11.84-1.68-12.11-8.46-59.63c-.62-4.38-3.55-2.56,2.29-15.52,7.67,11.93,12.32,18.76,16.14,32.45-3.78-.5-4.22-3.26-8.02-5.49.66,7.6,1.41,14.65,2.45,22.02l1.33,9.37,1.58,10.85,1.29,8.48c3.16,20.8,6.4,45.94,4.74,67.42l.02.02Z"/>
      <path class="st0" d="M368.92,268.71c.6.71-4.55,9.52-7.5,9.99l-10.89-9.5-6.77,9.04c-4.88-2.66-8.85-6.42-12.13-10.6l5.9-10.18c5.09,1.02,11.41,11.16,13.51,8.08l5.59-8.12c4.59,2.39,7.29,5.46,10.53,9.23l1.79,2.08-.02-.02Z"/>
      <path class="st0" d="M165.47,118.43c-1.95.77-2.85,2.51-4.88,1.48,1.7-3.91,4.8-6.05,8.58-7.77,15-6.82,30.19-12.18,45.59-18.08l14.25-5.46c-1.31,4.8-5.51,6.84-9.58,8.46l-53.96,21.36v.02Z"/>
      <path class="st0" d="M170.41,348.1c.42.69.77,2.22.66,2.85s-1.81,1.5-2.31,1.12c-1.25-.96-3.82-3.41-4.59-4.84-1.08-4.36,1.66-9.54,5.92-11.39l42.41-18.51c1.29-.56,3.08-2.04,3.82-.85-1.45,4.95-5.88,7.06-10.22,8.89-13.26,5.61-25.89,10.89-38.83,17.6l3.14,5.13h0Z"/>
      <path class="st0" d="M320.3,410.21c-3.26,1.25-2.49-9.99-10.12-12.86-2.97-1.12-5.67-.93-6.75-4.24-.71-2.14-1.68-6.11,1.27-7.71,2.78-.02,6.9,3.24,8.6,5.86l6.09,9.41,1.35-12.59c.23-2.18,2.68-6.23,4.76-6.61,3.37-.6,6.38,3.45,6.75,5.88.12.77-1.08,2.58-1.79,2.83-.81.31-2.26-.71-3.14-1.37l-2.08-1.6c-.48-.37-2.18.83-2.18,1.54.08,5.84-.46,15.81-2.76,21.48v-.02Z"/>
      <path class="st0" d="M196.82,192.04c-2.1-4.24-5.53-4.22-9.12-5.24-2.68-.77-3.93-6.65-1.62-8.69,1.54-1.37,5.34.27,6.84,1.7,3.26,3.12,5.15,6.46,8.14,10.76.91-5.84-.29-18.99,7.54-21.44,1.83-.56,4.28,1.54,4.95,2.91.83,1.72-.06,5.34-1.85,5.53-1.85-1.37-3.41-3.1-5.55-3.14-2.91,2.7-1,28.2-4.22,26.39-.33-.19-1.16-.85-1.33-1.21l-3.74-7.58h-.04Z"/>
      <path class="st0" d="M193.06,370.85c-1.31,6-4.65-8.91-10.74-10.51l-4.47-1.18c-1.48-2.16-1.48-7,.96-8.31,5.76,1.72,8.21,7.38,12.24,11.93.66-4.28-.73-18.49,4.05-19.84,2.1-.6,6.11,3.05,6.65,5.05.29,1.06-1.16,3.41-2.12,3.7l-4.76-3.68c-.42.35-1.14,2.2-1.04,2.91.93,6.73.64,13.34-.79,19.93l.02.02Z"/>
      <path class="st0" d="M262.48,201.91c0,4.45-5.73-9.85-12.07-11.37-3.18-.77-7.25-1.37-7.31-5.24,0-.62.12-1.7.19-2.12.1-.54,1.77-.89,2.35-.73,5.49,1.39,9.1,5.32,13.3,9.52l.93-6.03c.6-3.89,1.33-8.48,5.28-10.64,1.12-.6,3.37.71,4.01,1.68.77,1.16,1.16,3.76.48,4.97-1,1.75-2.85-1.14-5.24-1.66-.66-.15-1.91,1.54-1.91,2.22v19.39h0Z"/>
      <path class="st0" d="M254.25,339.27c-1.06,4.76-5.28,8.19-9.7,8.41-1.35.06-3.72-1.06-4.43-1.99-2.49-3.22-.02-13.42,2.06-18.12,5.69.87,13.55,5.07,12.09,11.7h-.02ZM250.91,338.9c-.81-2.53-5.09-5.92-7.58-5.01-1.99.87-2.04,6.67-.39,7.96,2.22,1.72,7.5-.29,7.98-2.95Z"/>
      <path class="st0" d="M294.41,144.86c-1.5,2.29-4.65,5.44-7.25,5.61-4.59.29-6.9-4.76-6.07-8.56l2.24-10.39c3.89-.06,7.42,1.18,9.99,3.8,2.45,2.51,3.32,6.15,1.1,9.56l-.02-.02ZM292.19,141.14c-.52-2.35-4.95-4.78-6.65-3.8-2.06,1.18-2.18,6.44-.46,7.67,2.35,1.66,7.75-.87,7.11-3.86Z"/>
      <path class="st0" d="M316.62,326.41c-7.04,3.28-9.85,8.56-11.41,5.26l4.51-5.55-4.57-6.71c1.37-3.91,4.63-6.88,8.6-7.71.87-.19,2.33,1.79,2.45,2.68.12.89-.62,3.18-1.37,2.89-1.52-.66-3.05-1.41-3.97-1.23-1.18.23-2.41,2.47-1.6,3.47,3.86,4.86,10.31.23,12.97.25.54,0,1.77,3.24-5.61,6.67v-.02Z"/>
      <path class="st0" d="M301.12,224.1c.69-2.29,1.25-4.16,2.89-4.59,2.26,3.08,1.52,8.37-1.52,10.58-2.2,1.6-5.15-.58-6.19-2.78-3.68-7.77-4.05-17.12.37-25.14,3.08,5.84-5.55,16,4.45,21.96v-.02Z"/>
      <path class="st0" d="M163.31,170l3.97-1.29c.25,1.75,0,3.66-.91,5.01-.81,1.21-3.22,2.56-4.61,2.1-8.91-2.93-2.99-22.23.31-28.49,3.74,3.45-5.88,15.85,1.23,22.65l.02.02Z"/>
      <path class="st0" d="M192.81,162.16l4.01-1.64c1.25,2.95-1.14,7.11-4.45,7.38-9.74.81-4.34-23.54-.85-28.4,3.86,4.45-5.69,14.46,1.31,22.67h-.02Z"/>
      <path class="st0" d="M368.13,241.8c1.18,3.89-.69,7.9-3.78,9.56-1.87,1.02-4.65-2.26-4.97-4.22-1.29-8.31-1.02-16.91,3.49-24.79,1.75,6-5.34,16.29,1.66,22.86l3.57-3.43.02.02Z"/>
      <path class="st0" d="M267.63,251.98l4.38-2.99c1.62,2.87-1.45,8.14-4.55,8.39-8.89.71-5.22-21.73-.6-25.85,1.39,5.49-5.3,13.92.77,20.47v-.02Z"/>
      <path class="st0" d="M375.88,332.73l1.31-1.75c.31-.42,1.39,1.39,1.29,1.95-.39,2.22-2.53,6.61-5.17,7.11-8.87,1.62-4.28-25.02.1-27.41l-1.91,10.26c-.66,3.62-.46,9.85,2.91,11.37.37.17.96-.89,1.43-1.54h.04Z"/>
      <path class="st0" d="M328.76,167.05c2.37,3.28-.31,9.1-2.95,9.6-1.27.25-3.26-.93-4.13-2.2-4.67-6.69-2.64-15.38.15-23.04,2.89,4.05-3.59,14.77,3.7,19.68l3.24-4.03Z"/>
      <path class="st0" d="M352.22,385.92c1.68,3.97-1.21,9.16-4.7,10.8-2.7,1.27-4.88-3.18-5.07-5.63-.54-6.94.81-13.55,3.2-20.42,4.2,2.6-4.76,13.75,1.91,21.13l4.65-5.88h0Z"/>
      <path class="st0" d="M422.97,246.06c.12.39.25,3.47.1,4.65-.15,1.25-2.66,2.43-4.16,2.64-7.31-6.25-3.37-19.7-1.89-28.3,3.22,5.96-1.56,13.44,1.72,22.21l4.2-1.21h.02Z"/>
      <path class="st0" d="M200.04,406.86c1.21,3.62-.87,6.94-3.64,8.54-1.91,1.1-4.65-1.33-5.28-3.28-1.7-5.36-.91-11.37,1.25-16.31,4.86-.39-2.91,9.12,3.93,14.21l3.72-3.16h.02Z"/>
      <path class="st0" d="M244.76,141.05c.91.39,3.35-2.99,4.22-2.08,1.08,3.49-1.95,7.79-5.46,8.52-5.49-6.11-4.99-15.94-1.16-23.46,3.59,2.47-3.99,14.25,2.39,17.02h.02Z"/>
      <path class="st0" d="M136.19,368.38c2.06-.52,3.41-.83,4.2-.75.52,3.16-2.02,6.63-4.78,6.69-6.59.19-5.3-17.18.35-20.8,2.95-1.89-5.42,10.99.21,14.86h.02Z"/>
      <path class="st0" d="M311.04,258.09l-16.44,9.25c-1.64-2.85.58-3.97,2.49-5.07l17.27-10.01c1.41,2.97-1.04,4.55-3.32,5.84Z"/>
      <path class="st0" d="M201.83,283.94l-11.43-9.66-7.19,8.91c-4.65-3.05-8.5-6.67-11.82-10.64l6.21-10.37c4.53,3.05,7.79,5.9,12.01,9.77,3.72-2.93,5.55-11.91,9-8.44l10.35,10.43c-1.95,3.59-3.55,6.05-7.15,10.01l.02-.02Z"/>
      <path class="st0" d="M157.32,305.34c-.96,8.48-5.36-7.09-9.29-9.02-3.08.96-5.76-.08-7.38-2.8-1.31-2.2-.37-7.29,2.37-7.77,5.34,2.2,7.73,7.02,11.91,11.72,1.7-3.95.6-15.5,5.32-17.72,2.95-1.39,6.9,2.97,6.48,5.65-.17,1.14-.85,2.74-1.54,2.99-2.24.83-5.15-7.33-5.84-1.27l-2.06,18.22h.02Z"/>
      <path class="st0" d="M127.13,320.68l3.99-3.84c2.02,2.99-.25,8.75-3.99,9.25-9.39,1.29-4.49-21.23.15-26.08,2.16,3.97-5.86,13.55-.17,20.69l.02-.02Z"/>
      <path class="st0" d="M146.85,225.6c-5.55,8.39-10.7,15.52-18.16,21.61-6.5,5.32-12.55,11.01-20.11,15.13,5.05-6.96,11.32-11.26,16.91-16.91,6.59-6.69,13.07-13.26,18.12-21.13-3.66-2.35-5.65-5.3-5.92-8.52-.31-3.76,1.1-7.06,4.47-9.12,1-.6,3.43-1.08,4.43-.71,4.9,1.81,1.77,10.37,1.95,13.55,2.1,2.51,5.05,6.65,5.4,9.62.06.46-.98,1.83-1.39,1.64-3.47-1.58-1.31-2.18-5.71-5.13l.02-.02ZM145.29,217.27c1.12-.17,1.02-3.3.25-4.3-.66-.89-3.24-1.23-3.72.48-.35,1.25,2.18,4.01,3.47,3.82Z"/>
    </g>
  </g>
</svg>