<?xml version="1.0" encoding="UTF-8"?>
<svg id="Layer_1" xmlns="http://www.w3.org/2000/svg" version="1.1" viewBox="0 0 512 512">
  <!-- Generator: Adobe Illustrator 30.2.1, SVG Export Plug-In . SVG Version: 2.1.1 Build 1)  -->
  <defs>
    <style>
      .st0 {
        fill: #fff;
      }

      .st1 {
        fill: #0f172a;
      }
    </style>
  </defs>
  <rect class="st1" width="512" height="512"/>
  <g>
    <g>
      <path class="st0" d="M400.84,352.97c.47-1.04.84-2.11,1.65-3.36,15.44-23.65,24.85-50.49,26.91-78.79l.7-9.76c.3-4.08.11-7.95-.12-12.1-1.14-21.16-5.43-42.22-14.14-61.48-1.74-.19-3.59-.72-3.87-1.67-.35-1.2.26-3.06.65-4.22.47-1.49-1.21-4.7-2.55-5.57-.74-.49-2.76-.97-3.75-1.44-17.55-31.92-44.46-57.49-77.56-72.53l-3.83-1.74c-40.2-18.25-86.49-18.45-127.8-2.62-2.11.81-3.57.33-5.5-.76-8.25,1.81-3.82,4.31-6.77,5.87l-11.75,6.23c-.91.47-2.85-.26-4.45-.93-1,.47-.28,5.22-2.9,5.36-1.02.05-2.39-.39-3.71-.95l-5.63,3.94-.51,3.99c-13.22,10.06-24.74,21.58-34.68,35-.98,1.34-2.94,1.32-4.63,1.18l-8.11,11.91c1.79-4.1,4.84-8.32,7.3-12.26-.16-1.16-.83-3.73-.19-4.61,10.38-14.12,22.46-26.22,36.32-36.7l4.22.74,5.42-4.19c.23-1.3.55-3.59,1.48-3.92,1.35-.49,3.04-.12,5.05.37l1.09-4.48,11.96-6.4c1.39-.74,3.32,0,4.89,1,1.39-.44,3.55-1.35,5.08-2.22.74-.63-.07-2.92,1.72-3.64,81.81-32.97,176.99.98,219.07,79.01.65,1.2.09,2.25-.56,3.83,1.62,8.07,4.55,4.73,6.4,7.56.7,1.07.05,3.22-1.02,4.43,10.55,24.53,15.79,53.16,13.88,80.05-2.16,30.51-11.62,60.94-29.79,85.86h.04Z"/>
      <path class="st0" d="M108.52,168.5c1.99,2.3,1.64,4.19.33,6.56-20.42,37.49-26.01,81.3-15.51,122.75,4.43,17.46,13.47,38.14,23.67,52.93,14.56,21.12,33.04,38.76,55.27,51.72,1.37.81,1.58,2.62,1.55,4.34,7.79,4.36,16.55,8.18,24.95,11.48,1.57-1.37,3.18-2.16,5.29-1.44,17.87,6.05,36.23,8.78,55.1,8.67,1.93,0,3.39,1.32,4.1,2.74.93-1.76,2.22-2.81,3.85-2.95l10.29-.93c1.71-.16,3.22.81,4.61,2.39.83-1.16,2-2.76,2.97-3.13,1.23-.47,2.92.6,4.06,1.88,12.31-2.15,25.32-5.82,36.88-11.18.39-2.15,1.37-3.71,3.2-4.54,9.25-4.27,17.52-9.27,25.97-15.02,1.02-.69,3.06-.18,4.17.32.18-1.3.42-3.24,1.13-4.08.81-.97,3.17-.79,4.63-.09,4.13-2.6,6.95-6.51,10.69-8.53-3.2,3.43-6.89,6.58-10.01,9.43.04,1.49-.21,3.73-1.18,4.2-1.14.58-2.87.35-4.47-.07.32,2.11-.35,4.01-2.37,5.36-8.67,5.73-17.76,11.24-27.36,15.39-.95.4-3.24-.98-4.38-1.34-11.48,5.19-24.48,8.72-36.65,11.31-.72,1.83-1.79,3.43-3.36,3.43-1.11,0-2.48-1.18-3.75-2.51-1,2.3-2.57,3.59-5.06,3.78l-9.43.76c-1.57.12-3.36-1.21-4.34-2.36-.95,1.41-2.48,2.55-4.7,2.55-20.12.05-39.73-2.99-58.65-9.67l-1.81-3.71c-8.67-3.29-16.88-7.09-24.94-11.31-.83.55-3.13,1.48-3.92,1-23.18-13.54-43.1-31.71-57.81-54.22l-2.53-3.87c-10.24-15.67-17.57-32.9-22.14-51.02l-.91-3.64c-10.76-42.54-3.55-87.63,17.96-125.92.81-1.46,3.39-1.49,4.61-1.48h0Z"/>
      <path class="st0" d="M394.1,362.16c.91-1.78,5.61-8.9,6.74-9.2-2.13,4.78-3.9,6.51-6.74,9.2Z"/>
      <path class="st0" d="M375.72,382.37l7.39-7.9,3.5-3.92c2.48-2.8,4.7-5.75,7.51-8.39-1.07,2.08-2.55,4.13-4.29,6.08l-4.1,4.55c-3.02,3.38-5.86,7.35-10.01,9.58v-.02Z"/>
      <path class="st0" d="M101.96,218.24c-6.84,28.51-5.87,57.81,2.81,85.77.33,1.07-.93,2.88-1.58,3.8l2.51,7.6,3.62,1.34c6.01,14.4,13.63,27.42,23.44,39.66.58.72.14,3.01-.14,4.1l3.64,4.52h3.87l5.86,6.01c.58.6.14,3.1.14,3.94l7.7,6.86,4.1-.39c31.5,25.17,71.01,37.95,111.11,34.52l3.22-.28c47.55-4.08,90.39-29.58,117.48-68.92l4.17-.86,6.89-11.8-1.14-3.85c8.23-15.7,13.82-32.55,16.41-50.21.32-2.16,1.46-3.29,3.32-4.34-.95-1-2.37-2.73-2.23-4.2,1.67-19.2.46-38-4.63-56.5-.51-1.86-.3-3.61.33-5.15-.88-.67-2.04-1.55-2.55-2.18-.58-.72.28-3.1.62-3.85-1.02-.84-2.5-2.15-3.06-3.64-4.01-10.59-8.71-20.44-14.88-29.88-1.23-1.88-1.21-3.83-.35-6.07-2.18-.11-4.06-.6-5.4-2.44-13.89-19.19-31.6-34.75-52.34-46.16-1.3-.72-1.57-2.64-1.93-4.03-.72-.79-3.1-1.93-4.2-2.2-1.6.83-3.25,1.42-4.96.65-16.81-7.67-34.33-12.28-52.83-13.66-1.97-.14-2.73-1.53-4.1-3.02-.95-1.02-2.95.97-3.62,2.34-9.46.09-18.96.32-28.44,1.74-1.79.26-3.29-.84-4.38-2.18-29.16,4.87-56.93,16.83-78.61,36.77l-6.1,5.63-4.77,3.97c.95-2.57,3.22-3.75,5.08-5.45l5.19-4.77c21.79-20.03,49.8-32.13,79.01-36.98.56-1.11,1.65-3.1,2.55-3.24,9.65-1.48,19.15-1.97,28.96-1.9,2.3.02,2.41,2.36,4.13,3.18,1.58.77,2.27-2.87,5.1-2.64,20.1,1.64,39.57,6.68,57.54,15.35.33,2.32,1.07,3.53,2.36,4.45,1.65,1.18,3.94.09,5.73-.37,22.63,11.99,41.57,29.05,56.56,49.65.84,1.14.18,3.66-.11,4.89l4.15,1.04c6.95,10.69,12.5,21.77,17.01,33.8.46,1.23-.21,3.22-.69,3.97.77.56,2.29,1.6,2.73,2.36.51.86-.19,2.95-.62,3.99.56.42,2.41,1.72,2.66,2.6,5.45,19.68,7.09,39.55,5.4,59.88-.18,2.13-1.51,3.41-3.36,4.2l2.43,3.32c-2.57,18.43-8.11,35.89-16.43,52.53-.97,1.95-2.62,2.64-4.57,2.85l-7.53,12.38c.44,1.37,1.51,2.5.37,4.19-53.71,78.4-164.33,95.86-239.52,36.14-1.11-.88-1.92-1.81-1.32-4.24l-7.97-7.12-3.73.05c-3.2-3.15-7.86-5.57-6.23-10.2l-3.99-4.41c-2.15.19-3.61-.05-4.8-1.58-9.27-11.69-16.57-24.25-22.67-37.88-.97-2.16-.51-3.5.55-5.82-.6-2-1.95-5.68-2.78-7.63-1.86-.81-3.32-1.39-3.89-3.29-8.69-29.21-9.67-59.79-2.23-89.43l3.39-1.88,1.76-6.91c-.6-1.07-1.86-2.99-1.53-3.9.37-1,2.02-2.18,3.01-2.74-.44-1.13-.95-3.08-.32-4.66,7.42-18.55,17.62-35.72,31.18-50.38,2.27.25,3.82-.23,5.77-1.27-2.76.47-.46,4.22-1.32,5.29-12.06,14.6-22.9,30.67-29.46,48.66-.6,1.62-2.3,2.73-3.36,3.27.49.95,1.16,2.99.65,4.06-.42.9-1.92,1.57-3.5,1.95l-2.25,7.12c1.18,1.11,2.27,2.53,1.9,4.1l-.02.04Z"/>
      <path class="st0" d="M173.52,126.86l-6.08,4.77c-.12,2.16-.47,3.8-1.88,4.87-45.41,35.01-67.02,92.49-55.92,148.8.32,1.6-.79,3.01-2.08,4.1,2.8,11.55,6.67,23.34,11.87,33.89,1.81.07,3.59.55,4.08,1.65s.14,2.64-.47,4.03c-1.48,3.25,3.57,1.9,5.15,4.55,13.59,22.77,32.71,41.17,55.8,54.31,1.21.69,1.28,3.29,1.27,4.38-1.35.91-3.43,1.79-4.84.98-24.02-13.59-43.67-32.87-57.88-56.49-.74-1.23-.23-2.9.3-4.26,1.16-3.04-3.97-2.13-5.22-4.75-.4-.84.25-2.59.98-3.9-4.85-10.78-9.2-22.09-11.71-33.87l-3.22-1.95c-12.35-59.34,10.45-120.48,58.76-157.2,1.09-.83,2.5-.46,4.19.12l4.45-2.88c.72-.47,1.81-.91,2.51-1.13l-.05-.02Z"/>
      <path class="st0" d="M368.37,363.38c19.19-22.16,31.22-41.61,38.85-71.1l-2.15-3.76c3.69-16.21,4.12-32.46,2.76-48.91,1.62-1.39,2.51-2.74,2.27-4.47-.28-1.99-.91-3.18-3.9-4.06-7.9-57.86-53.95-106.13-108.93-120.75-3.94-1.06-2.53-4.06-4.68-4.24-2.53-.21-2.44,2.46-5.15,1.93-15.04-2.97-30.46-3.62-45.6-2.15-.76-.21-2.18-1.65-2.95-2.41l-7.76,1.16c-.65,1.25-1.71,2.9-2.87,3.02s-2.8-.9-4.33-1.86c-.79,2.8-2.29,3.64-4.71,4.31l-14.28,3.96c-.95.26-3.02-1.74-3.87-1.32-5.52,2.69-1.65,3.01-4.43,5.19-2.09,1.65-3.5-1.88-6.75-.04l-16.36,9c4.5-4.01,10.09-6.63,15.85-9.41,4.03-1.95,1.27-3.76,3.76-5.17,3.01-1.71,3.52,2.64,7.88.05.86-.51,1.48-2.55,2.02-3.87,5.14-2.04,10.62-3.66,16.23-5.24,1.42-.4,3.36,1.04,4.55,1.97.74-1.78,1.67-3.64,2.8-3.96,1.67-.47,3.38.47,4.19,2.27l7.67-.98,2.36-3.02c15.92-1.79,31.57-.93,47.36,1.99,1.58.3,2.8,2.13,3.31,3.22,1.57,3.29,3.52-1.53,6.88-.7,51.53,12.77,107.77,65.39,114.08,125.79.19,1.93-3.34,2.6-1.95,5.35.65,1.28,1.44,2.71,3.53,3.82,2.04,17.02.97,34.17-2.66,50.98l-3.39,2.3c-6.54,26.7-19.75,51.83-39.6,71.12l-.02-.02Z"/>
      <path class="st0" d="M339.57,386.66c-.46.4-1.28,1.44-1.9,1.79-10.34,5.87-20.56,10.96-31.94,14.61-16.88,5.42-34.12,8.04-51.76,7.53-1.09,1.85-2.41,2.78-4.5,2.66-19.78-1.11-38.81-5.59-56.7-13.82l-1.41-3.73c-2.23-1.07-4.71-1.76-6.16-3.52,2.27.32,4.57,1.78,6.81,2.8,1.81-.95,3.68-1.35,5.66-.47,16.65,7.35,34.12,11.33,52.41,12.2,1.64.07,2.92,1.42,3.8,2.25,3.64,3.46,8.28-.97,14.84-.12,18.68,2.41,54.39-12.73,70.84-22.19v.02Z"/>
      <path class="st0" d="M349.38,379.93c-1.58,2.46-7.28,5.28-9.8,6.74,2.16-1.92,7.14-5.59,9.8-6.74Z"/>
      <path class="st0" d="M368.37,363.38c-4.52,4.4-13.28,14.07-18.99,16.55.21-.32.74-1.11,1.13-1.39,5.31-3.96,10.62-8.51,15.23-13.45.63-.69,1.64-1.27,2.64-1.69v-.02Z"/>
    </g>
    <g>
      <path class="st0" d="M237.97,296.78c1.02-2.59,1.32-6.21,4.8-7.05,1.76-.44,4.01,1.76,4.64,3.73,2.22,6.91-2.32,8.49,1.64,12.56,1.35,1.39,1.41,4.04-.76,4.84-.9-.72-1.99-2.06-3.31-3.76-5.31,6.21-10.96,12.15-17.73,17.43l6,6.24c-6.14,10.16-10.67,12.22-12.7,26.12,18.57-7.16,33.7-15.95,47.73-29.32l-4.26-10.31-12.05-26.4c-1.55-3.39.91-8.11,2.83-11.17l12.94,14.3,1.35,1.3c.3.3-.18,1.34-.56,1.51-2.48,1.16-3.94-2.99-6.33-2.06,1.9,5.89,4.38,10.69,7.05,15.93,4.92,9.62,4.04,20.21-2.69,28.6-10.48,13.1-31.53,23.55-47.29,29.28-1.78,7.97,3.31,21.88,11.89,21.74,8.63-.14,19.71-12.38,24.94-18.85s10.36-13.1,16.74-18.85c14.81-13.33,32.08-16.6,49.43-25.97l-2.51-12.38c-1.67-8.18-.25-22.23,7.51-26.73,2.32-1.35,7.54-2,9.9.04,6.51,5.66,9.41,15.19,8.09,23.51-1.37,8.74-5.77,15.83-12.8,21.28,4.03,6.4,11.04,9.73,18.48,8.67,6.16-.88,12.31-3.92,16.28-8.49-.74-4.73-1.13-8.79-1.57-13.26l-1.2-12.5-1.18-10.69-1.14-9.43-3.15-24.76-5.63-44.28-1.14-8.95-1.39-11.18-1.28-10.48-1.25-10.2-1.3-10.34c-1.09-8.63-2.37-4.36,2.3-14.74,5.87,7.93,9.16,16.58,11.91,25.78l.51,1.74c.12.4-1.37.74-1.67.44l-4.38-4.54.91,8.53,1.46,17.32,6.4,54.89,2.09,17.62,1.41,11.77,1.21,10.08,1.16,9.41c1.69,13.68,4.24,36.79-11.11,43.97-10.78,5.03-22.33,5.19-29.14-5.89l-4.06-6.59c-14.61,6.01-28.88,11.47-42.37,19.47-14.12,8.37-24.3,26.78-38.18,38.37-4.04,3.38-9.27,4.66-14,2.8-12.31-4.85-14.93-13.38-16.95-25.94-16.23,2.55-34.57,5.1-45.81-8.76-4.99-6.16-6.79-13.88-7.39-21.72l-.83-10.76c-6.65,5.42-11.99,12.73-22.12,7.42-10.45-5.47-15.11-17.46-12.61-29.02,1.67-7.74,4.41-14.74,7.54-22.14-6.84-2.23-12.57-6.52-16.27-12.98-3.36-5.87-2.8-13.44-1.28-20.01,1.07-4.73,8.21-18.82,11.15-23.37-6.63-14.86,5.33-29.53,14.02-41.05-1.3-7.07-.07-14.14,3.15-20.82,20.49-11.69,41.35-21.6,63.61-29.49,20.82-7.39,41.61-13.68,62.94-18.22,4.15-.88,9.29,2.23,10.45,5.57,3.61,10.43-11.96,29.07-18.85,36.44-4.29,4.59-8.93,9.92-12.71,14.84-.12.16-.74.62-.88.76-.21.19-.72-.81-.58-1.2,7.93-20.12,30.44-32.09,27.59-40.75-.46-1.35-2.06-3.71-3.99-3.73-5.43-.05-10.57-.07-15.74.91-14.02,2.69-23.3,7.19-36.74,10.9l-35.82,13.95c-13.4,5.22-25.94,11.34-38.46,18.75l63.28,44.05c8.6-4.55,17.78-6.49,27.75-5.72l-7.3-26.7c-1.9-9.25-5.12-20.7,1.11-30.07l10.31,20.68c-2.15-.56-3.13-1.14-5.4-2.16.74,10.87,3.13,21.65,8.53,31.25,3.57,6.35,9.36,10.06,14.68,14.7,2.6,3.52,1.67,9.41.26,13.81-10.13-9.81-24.36-13.26-37.6-7.98,17.08,13.56,33.04,27.12,48.92,41.31,3.36,3.01,6.61,5.01,10.99,7.07l-1.11-12.2-4.12-34.94-2.39-18.54-1.25-10.08-1.35-11.78c-.9-7.88-2.37-11.59,1.58-18.38,5.31,6.38,11.68,19.38,12.59,27.72l-5.96-4.63,1.95,17.83,3.5,27.21,2.76,21.51.88,8.25,1.11,8.42c2.88,4.99,18.06-2.04,20.45-6.65l-1.95-17.48-1.48-12.79-1.16-8.34-4.85-36.61-8.49-58.9c-.74-5.17-1.07-9.51,2.44-14.95l5.93,10.39c2.97,5.21,5.17,10.75,6.77,16.95-3.69-.12-3.29-3.25-6.77-4.27l.62,7.28c.67,8,1.67,15.65,2.78,23.69l4.13,30.27,1.6,11.69,1.07,7.97,2.73,19.47,1.93,13.84c2.48,17.76-6.58,27.66-23.42,32.06-.18,9.6,1.09,9.09.39,19.4-1.62,23.65-6.52,26.45-5.65,21.54.74-4.19.67-8.72.3-13l-1.37-16.07c-.35-4.17-.83-8.05-1.46-12.24-8.02-2.51-14.02-7.09-20.08-12.64l-27.26-24.95c-3.87-3.55-8.07-6.81-12.8-9.04,6.33,7.67,11.91,13.47,14.44,22.3,1.67,5.82,2.41,12.54-.4,18.2-2.23,4.47-6.75,7.3-10.96,9.69-18.68,10.6-45.34,10.78-61.46,32.01-.39,4.19-.19,8.92.56,12.94,4.41,23.23,31.43,26.92,50.09,19.8l8.56-21.49-7.4-7.35c1.53-2.8,3.24-5.1,5.4-7.76l3.61.93c5.84-5.05,11.94-10.6,16.2-17.6-3.31-2.04-5.19-4.84-3.73-8.56h.07ZM122.82,273.21c4.03,4.99,11.52,4.82,16.53,1.65,19.98-12.57,26.45-20.42,42.84-35.68l10.89-10.13-50.28-38.3c-6.67,8.93-13.51,17.73-9.87,28.81.21.62,1.25,1.55,1.85,1.55.47,0,1.69-.4,2.02-.79l3.43-3.96c.19-.23,1.09-.32,1.41-.33s.44,1.18.33,1.51c-2.29,6.49-7.14,12.47-13.35,16.04-5.33,10.99-14.7,28.51-5.79,39.6l-.02.04ZM157.9,319.68c21.89-25.5,52.81-24.16,78.01-43.35-4.27-11.41-12.82-21.33-21.91-29.18l-12.35-10.31c-6.93,4.77-12.75,9.39-18.76,14.88l-23.88,21.84c-6.35,5.8-13.66,9.58-21.7,12.86-6.44,11.94-13.95,32.34-1.72,43.05,8.81,4.13,16.58-3.15,22.3-9.8h.02ZM244.67,299.8c.44-1.9-1.69-4.26-3.32-4.43-1.34,2.16,1.39,5.63,3.32,4.43ZM333.43,320.34c2.27-1.32,6.51-3.52,7.02-6.44,1.25-7.12-5.87-18.78-11.68-16.58-9.87,3.75-3.96,19.4.07,25.66l4.57-2.66.02.02Z"/>
      <path class="st0" d="M337.49,222.76c3.15,28.51-4.15,38.69-3.76,33.06.47-6.95-.7-25.57-3.73-32.17-3.66,2.43-9.99,8.56-13.28,8.32-1.42-.11,12.03-10.99,12.93-12.68l-2.29-18.43-3.99-30.35-2.94-18.96-1.04-5.45c-1.28-6.7-2.18-7.79,2.29-16.04,5.79,9.14,10.78,18.75,12.94,29.12-2.22-.72-3.25-2.15-4.68-3.68l-.74-.79c-.23-.25-1.25-.23-1.18.09s.44,1.39.51,1.81l8.07,55.38c2.2-1.76,3.34-3.69,4.5-5.73-1.69-2.6-3.75-4.8-4.17-7.91-.39-2.87,3.57-6.95,6.26-6.82,4.36,1.86,4.87,7.61,3.41,11.45-.9,2.36-1.04,4.33-1.04,7.19l-3.04.32-5.47,6.95c-.9,1.14.26,3.76.44,5.35l-.02-.02ZM343.42,201.39c1.97-1.57-.14-5.5-2.44-4.66-.81.3-.6,2.57-.16,3.32.35.63,2.04,1.79,2.6,1.34Z"/>
      <path class="st0" d="M390.41,302.83c-.3,3.85-2.29,7.58-3.62,11.38-1.86-1.44-1.02-3.71-1.16-5.72l-1.23-17.27-1.39-17.8-1.13-9.55-1.35-10.02-1.42-10.25-7.16-50.47c-.53-3.71-3.01-2.16,1.93-13.14,6.49,10.09,10.43,15.88,13.66,27.47-3.2-.42-3.57-2.76-6.79-4.64.56,6.44,1.2,12.4,2.08,18.64l1.13,7.93,1.34,9.18,1.09,7.18c2.67,17.6,5.42,38.88,4.01,57.07l.02.02Z"/>
      <path class="st0" d="M351.58,266.76c.51.6-3.85,8.05-6.35,8.46l-9.22-8.04-5.73,7.65c-4.13-2.25-7.49-5.43-10.27-8.97l4.99-8.62c4.31.86,9.65,9.44,11.43,6.84l4.73-6.88c3.89,2.02,6.17,4.63,8.92,7.81l1.51,1.76-.02-.02Z"/>
      <path class="st0" d="M179.37,139.56c-1.65.65-2.41,2.13-4.13,1.25,1.44-3.31,4.06-5.12,7.26-6.58,12.7-5.77,25.55-10.31,38.58-15.3l12.06-4.63c-1.11,4.06-4.66,5.79-8.11,7.16l-45.67,18.08v.02Z"/>
      <path class="st0" d="M183.56,333.96c.35.58.65,1.88.56,2.41s-1.53,1.27-1.95.95c-1.06-.81-3.24-2.88-3.89-4.1-.91-3.69,1.41-8.07,5.01-9.64l35.89-15.67c1.09-.47,2.6-1.72,3.24-.72-1.23,4.19-4.98,5.98-8.65,7.53-11.22,4.75-21.91,9.22-32.87,14.9l2.66,4.34h0Z"/>
      <path class="st0" d="M310.43,386.52c-2.76,1.06-2.11-8.46-8.56-10.89-2.51-.95-4.8-.79-5.72-3.59-.6-1.81-1.42-5.17,1.07-6.52,2.36-.02,5.84,2.74,7.28,4.96l5.15,7.97,1.14-10.66c.19-1.85,2.27-5.28,4.03-5.59,2.85-.51,5.4,2.92,5.72,4.98.11.65-.91,2.18-1.51,2.39-.69.26-1.92-.6-2.66-1.16l-1.76-1.35c-.4-.32-1.85.7-1.85,1.3.07,4.94-.39,13.38-2.34,18.18v-.02Z"/>
      <path class="st0" d="M205.91,201.87c-1.78-3.59-4.68-3.57-7.72-4.43-2.27-.65-3.32-5.63-1.37-7.35,1.3-1.16,4.52.23,5.79,1.44,2.76,2.64,4.36,5.47,6.89,9.11.77-4.94-.25-16.07,6.38-18.15,1.55-.47,3.62,1.3,4.19,2.46.7,1.46-.05,4.52-1.57,4.68-1.57-1.16-2.88-2.62-4.7-2.66-2.46,2.29-.84,23.86-3.57,22.33-.28-.16-.98-.72-1.13-1.02l-3.17-6.42h-.04Z"/>
      <path class="st0" d="M202.73,353.21c-1.11,5.08-3.94-7.54-9.09-8.9l-3.78-1c-1.25-1.83-1.25-5.93.81-7.03,4.87,1.46,6.95,6.24,10.36,10.09.56-3.62-.62-15.65,3.43-16.79,1.78-.51,5.17,2.59,5.63,4.27.25.9-.98,2.88-1.79,3.13l-4.03-3.11c-.35.3-.97,1.86-.88,2.46.79,5.7.55,11.29-.67,16.87l.02.02Z"/>
      <path class="st0" d="M261.48,210.22c0,3.76-4.85-8.34-10.22-9.62-2.69-.65-6.14-1.16-6.19-4.43,0-.53.11-1.44.16-1.79.09-.46,1.49-.76,1.99-.62,4.64,1.18,7.7,4.5,11.26,8.05l.79-5.1c.51-3.29,1.13-7.18,4.47-9,.95-.51,2.85.6,3.39,1.42.65.98.98,3.18.4,4.2-.84,1.48-2.41-.97-4.43-1.41-.56-.12-1.62,1.3-1.62,1.88v16.41h0Z"/>
      <path class="st0" d="M254.52,326.48c-.9,4.03-4.47,6.93-8.21,7.12-1.14.05-3.15-.9-3.75-1.69-2.11-2.73-.02-11.36,1.74-15.34,4.82.74,11.47,4.29,10.24,9.9h-.02ZM251.69,326.16c-.69-2.15-4.31-5.01-6.42-4.24-1.69.74-1.72,5.65-.33,6.74,1.88,1.46,6.35-.25,6.75-2.5Z"/>
      <path class="st0" d="M288.51,161.93c-1.27,1.93-3.94,4.61-6.14,4.75-3.89.25-5.84-4.03-5.14-7.25l1.9-8.79c3.29-.05,6.28,1,8.46,3.22,2.08,2.13,2.81,5.21.93,8.09l-.02-.02ZM286.63,158.78c-.44-1.99-4.19-4.04-5.63-3.22-1.74,1-1.85,5.45-.39,6.49,1.99,1.41,6.56-.74,6.01-3.27Z"/>
      <path class="st0" d="M307.31,315.6c-5.96,2.78-8.34,7.25-9.65,4.45l3.82-4.7-3.87-5.68c1.16-3.31,3.92-5.82,7.28-6.52.74-.16,1.97,1.51,2.08,2.27.11.76-.53,2.69-1.16,2.44-1.28-.56-2.59-1.2-3.36-1.04-1,.19-2.04,2.09-1.35,2.94,3.27,4.12,8.72.19,10.97.21.46,0,1.49,2.74-4.75,5.65v-.02Z"/>
      <path class="st0" d="M294.19,229c.58-1.93,1.06-3.52,2.44-3.89,1.92,2.6,1.28,7.09-1.28,8.95-1.86,1.35-4.36-.49-5.24-2.36-3.11-6.58-3.43-14.49.32-21.28,2.6,4.94-4.7,13.54,3.76,18.59v-.02Z"/>
      <path class="st0" d="M177.54,183.21l3.36-1.09c.21,1.48,0,3.1-.77,4.24-.69,1.02-2.73,2.16-3.9,1.78-7.54-2.48-2.53-18.82.26-24.11,3.17,2.92-4.98,13.42,1.04,19.17l.02.02Z"/>
      <path class="st0" d="M202.52,176.58l3.39-1.39c1.06,2.5-.97,6.01-3.76,6.24-8.25.69-3.68-19.93-.72-24.04,3.27,3.76-4.82,12.24,1.11,19.19h-.02Z"/>
      <path class="st0" d="M350.91,243.98c1,3.29-.58,6.68-3.2,8.09-1.58.86-3.94-1.92-4.2-3.57-1.09-7.03-.86-14.32,2.95-20.98,1.48,5.08-4.52,13.79,1.41,19.34l3.02-2.9.02.02Z"/>
      <path class="st0" d="M265.84,252.6l3.71-2.53c1.37,2.43-1.23,6.89-3.85,7.1-7.53.6-4.41-18.4-.51-21.88,1.18,4.64-4.48,11.78.65,17.32v-.02Z"/>
      <path class="st0" d="M357.47,320.94l1.11-1.48c.26-.35,1.18,1.18,1.09,1.65-.33,1.88-2.15,5.59-4.38,6.01-7.51,1.37-3.62-21.17.09-23.2l-1.62,8.69c-.56,3.06-.39,8.34,2.46,9.62.32.14.81-.76,1.21-1.3h.04Z"/>
      <path class="st0" d="M317.58,180.71c2,2.78-.26,7.7-2.5,8.12-1.07.21-2.76-.79-3.5-1.86-3.96-5.66-2.23-13.01.12-19.5,2.44,3.43-3.04,12.5,3.13,16.65l2.74-3.41Z"/>
      <path class="st0" d="M337.44,365.96c1.42,3.36-1.02,7.76-3.97,9.14-2.29,1.07-4.13-2.69-4.29-4.77-.46-5.87.69-11.47,2.71-17.29,3.55,2.2-4.03,11.64,1.62,17.89l3.94-4.98h0Z"/>
      <path class="st0" d="M397.32,247.59c.11.33.21,2.94.09,3.94-.12,1.06-2.25,2.06-3.52,2.23-6.19-5.29-2.85-16.67-1.6-23.95,2.73,5.05-1.32,11.38,1.46,18.8l3.55-1.02h.02Z"/>
      <path class="st0" d="M208.64,383.69c1.02,3.06-.74,5.87-3.08,7.23-1.62.93-3.94-1.13-4.47-2.78-1.44-4.54-.77-9.62,1.06-13.81,4.12-.33-2.46,7.72,3.32,12.03l3.15-2.67h.02Z"/>
      <path class="st0" d="M246.48,158.71c.77.33,2.83-2.53,3.57-1.76.91,2.95-1.65,6.59-4.63,7.21-4.64-5.17-4.22-13.49-.98-19.85,3.04,2.09-3.38,12.06,2.02,14.4h.02Z"/>
      <path class="st0" d="M154.59,351.12c1.74-.44,2.88-.7,3.55-.63.44,2.67-1.71,5.61-4.04,5.66-5.57.16-4.48-14.54.3-17.6,2.5-1.6-4.59,9.3.18,12.57h.02Z"/>
      <path class="st0" d="M302.58,257.77l-13.91,7.83c-1.39-2.41.49-3.36,2.11-4.29l14.61-8.48c1.2,2.51-.88,3.85-2.81,4.94Z"/>
      <path class="st0" d="M210.15,279.65l-9.67-8.18-6.08,7.54c-3.94-2.59-7.19-5.65-10.01-9l5.26-8.78c3.83,2.59,6.59,4.99,10.16,8.27,3.15-2.48,4.7-10.08,7.61-7.14l8.76,8.83c-1.65,3.04-3.01,5.12-6.05,8.48l.02-.02Z"/>
      <path class="st0" d="M172.48,297.76c-.81,7.18-4.54-6-7.86-7.63-2.6.81-4.87-.07-6.24-2.37-1.11-1.86-.32-6.17,2-6.58,4.52,1.86,6.54,5.94,10.08,9.92,1.44-3.34.51-13.12,4.5-15,2.5-1.18,5.84,2.51,5.49,4.78-.14.97-.72,2.32-1.3,2.53-1.9.7-4.36-6.21-4.94-1.07l-1.74,15.42h.02Z"/>
      <path class="st0" d="M146.93,310.74l3.38-3.25c1.71,2.53-.21,7.4-3.38,7.83-7.95,1.09-3.8-17.97.12-22.07,1.83,3.36-4.96,11.47-.14,17.52l.02-.02Z"/>
      <path class="st0" d="M163.62,230.27c-4.7,7.1-9.06,13.14-15.37,18.29-5.5,4.5-10.62,9.32-17.02,12.8,4.27-5.89,9.58-9.53,14.32-14.32,5.57-5.66,11.06-11.22,15.34-17.89-3.1-1.99-4.78-4.48-5.01-7.21-.26-3.18.93-5.98,3.78-7.72.84-.51,2.9-.91,3.75-.6,4.15,1.53,1.49,8.78,1.65,11.47,1.78,2.13,4.27,5.63,4.57,8.14.05.39-.83,1.55-1.18,1.39-2.94-1.34-1.11-1.85-4.84-4.34l.02-.02ZM162.3,223.22c.95-.14.86-2.8.21-3.64-.56-.76-2.74-1.04-3.15.4-.3,1.06,1.85,3.39,2.94,3.24Z"/>
    </g>
  </g>
</svg>