<?xml version="1.0" encoding="UTF-8"?>
<svg id="Layer_1" xmlns="http://www.w3.org/2000/svg" version="1.1" viewBox="0 0 280 60">
  <!-- Generator: Adobe Illustrator 30.1.0, SVG Export Plug-In . SVG Version: 2.1.1 Build 136)  -->
  <defs>
    <style>
      .st0 {
        fill: #64748b;
        font-family: Poppins-Regular, Poppins;
        font-size: 12px;
      }

      .st0, .st1, .st2 {
        isolation: isolate;
      }

      .st2 {
        font-family: Poppins-Medium, Poppins;
        font-size: 18px;
        font-weight: 500;
      }
    </style>
  </defs>
  <g class="st1">
    <text class="st2" transform="translate(65 28)"><tspan x="0" y="0">Quran Corpus</tspan></text>
  </g>
  <g class="st1">
    <text class="st0" transform="translate(65 46)"><tspan x="0" y="0">Visualizer</tspan></text>
  </g>
  <g>
    <g>
      <path d="M47.25,41.55c.06-.12.1-.25.2-.4,1.84-2.82,2.96-6.01,3.2-9.38l.08-1.16c.04-.49,0-.95,0-1.44-.14-2.52-.65-5.03-1.68-7.32-.21-.02-.43-.09-.46-.2-.04-.14.03-.36.08-.5.06-.18-.14-.56-.3-.66-.09-.06-.33-.12-.45-.17-2.09-3.8-5.29-6.85-9.24-8.64l-.46-.21c-4.79-2.18-10.3-2.2-15.22-.31-.25.1-.42.04-.65-.09-.98.22-.45.51-.81.7l-1.4.74c-.11.06-.34-.03-.53-.11-.12.06-.03.62-.35.64-.12,0-.29-.05-.44-.11l-.67.47-.06.48c-1.57,1.2-2.95,2.57-4.13,4.17-.12.16-.35.16-.55.14l-.97,1.42c.21-.49.58-.99.87-1.46-.02-.14-.1-.45-.02-.55,1.24-1.68,2.67-3.12,4.32-4.37l.5.09.65-.5c.03-.15.06-.43.18-.47.16-.06.36-.01.6.04l.13-.53,1.42-.76c.17-.09.39,0,.58.12.16-.05.42-.16.61-.26.09-.08,0-.35.21-.43,9.74-3.93,21.08.12,26.09,9.41.08.14,0,.27-.07.46.19.96.54.56.76.9.08.13,0,.38-.12.53,1.26,2.92,1.88,6.33,1.65,9.53-.26,3.63-1.38,7.26-3.55,10.22v-.03Z"/>
      <path d="M12.43,19.58c.24.27.19.5.04.78-2.43,4.46-3.1,9.68-1.85,14.62.53,2.08,1.6,4.54,2.82,6.3,1.73,2.51,3.94,4.62,6.58,6.16.16.1.19.31.19.52.93.52,1.97.97,2.97,1.37.19-.16.38-.26.63-.17,2.13.72,4.31,1.05,6.56,1.03.23,0,.4.16.49.33.11-.21.26-.34.46-.35l1.22-.11c.2-.02.38.1.55.29.1-.14.24-.33.35-.37.15-.06.35.07.48.23,1.47-.25,3.02-.69,4.39-1.33.05-.26.16-.44.38-.54,1.1-.51,2.09-1.1,3.09-1.79.12-.08.36-.02.5.04.02-.16.05-.39.14-.49.1-.12.38-.09.55,0,.49-.31.83-.78,1.27-1.02-.38.41-.82.78-1.19,1.12,0,.18-.03.44-.14.5-.14.07-.34.04-.53,0,.04.25-.04.48-.28.64-1.03.68-2.12,1.34-3.26,1.83-.11.05-.39-.12-.52-.16-1.37.62-2.92,1.04-4.36,1.35-.09.22-.21.41-.4.41-.13,0-.29-.14-.45-.3-.12.27-.31.43-.6.45l-1.12.09c-.19,0-.4-.15-.52-.28-.11.17-.3.3-.56.3-2.4,0-4.73-.36-6.98-1.15l-.22-.44c-1.03-.39-2.01-.84-2.97-1.35-.1.06-.37.17-.47.12-2.76-1.61-5.13-3.78-6.88-6.46l-.3-.46c-1.22-1.87-2.09-3.92-2.64-6.07l-.11-.43c-1.28-5.07-.42-10.44,2.14-15,.1-.17.41-.18.55-.18v-.02Z"/>
      <path d="M46.44,42.64c.11-.21.67-1.06.8-1.09-.25.57-.46.78-.8,1.09Z"/>
      <path d="M44.26,45.05l.88-.94.42-.47c.3-.33.56-.68.89-1-.13.25-.3.49-.51.72l-.49.54c-.36.4-.7.87-1.19,1.14h0Z"/>
      <path d="M11.65,25.5c-.82,3.39-.7,6.88.34,10.21.04.13-.11.34-.19.45l.3.9.43.16c.72,1.72,1.62,3.27,2.79,4.72.07.09.02.36-.02.49l.43.54h.46l.7.72c.07.07.02.37.02.47l.92.82.49-.05c3.75,3,8.46,4.52,13.23,4.11l.38-.03c5.66-.49,10.77-3.52,13.99-8.21l.5-.1.82-1.41-.14-.46c.98-1.87,1.65-3.88,1.95-5.98.04-.26.17-.39.4-.52-.11-.12-.28-.32-.27-.5.2-2.29.05-4.53-.55-6.73-.06-.22-.04-.43.04-.61-.11-.08-.24-.18-.3-.26-.07-.09.03-.37.07-.46-.12-.1-.3-.26-.36-.43-.48-1.26-1.04-2.43-1.77-3.56-.15-.22-.15-.46-.04-.72-.26-.01-.48-.07-.64-.29-1.66-2.28-3.76-4.14-6.23-5.5-.16-.09-.19-.31-.23-.48-.09-.09-.37-.23-.5-.26-.19.1-.39.17-.59.08-2-.91-4.09-1.46-6.29-1.63-.24-.02-.32-.18-.49-.36-.11-.12-.35.12-.43.28-1.13.01-2.26.04-3.39.21-.21.03-.39-.1-.52-.26-3.47.58-6.78,2-9.36,4.38l-.73.67-.57.47c.11-.31.38-.45.6-.65l.62-.57c2.6-2.39,5.93-3.83,9.41-4.4.07-.13.2-.37.3-.39,1.15-.18,2.28-.24,3.45-.23.27,0,.29.28.49.38.19.09.27-.34.61-.31,2.39.2,4.71.79,6.85,1.83.04.28.13.42.28.53.2.14.47.01.68-.04,2.7,1.43,4.95,3.46,6.74,5.91.1.14.02.44,0,.58l.49.12c.83,1.27,1.49,2.59,2.03,4.03.05.15-.03.38-.08.47.09.07.27.19.32.28.06.1-.02.35-.07.48.07.05.29.2.32.31.65,2.34.84,4.71.64,7.13-.02.25-.18.41-.4.5l.29.4c-.31,2.2-.97,4.27-1.96,6.26-.12.23-.31.31-.54.34l-.9,1.47c.05.16.18.3.04.5-6.4,9.34-19.57,11.42-28.53,4.3-.13-.1-.23-.22-.16-.5l-.95-.85h-.44c-.38-.37-.94-.66-.74-1.21l-.47-.53c-.26.02-.43,0-.57-.19-1.1-1.39-1.97-2.89-2.7-4.51-.11-.26-.06-.42.07-.69-.07-.24-.23-.68-.33-.91-.22-.1-.4-.16-.46-.39-1.04-3.48-1.15-7.12-.27-10.65l.4-.22.21-.82c-.07-.13-.22-.36-.18-.46.04-.12.24-.26.36-.33-.05-.13-.11-.37-.04-.55.88-2.21,2.1-4.25,3.71-6,.27.03.46-.03.69-.15-.33.06-.05.5-.16.63-1.44,1.74-2.73,3.65-3.51,5.79-.07.19-.27.32-.4.39.06.11.14.36.08.48-.05.11-.23.19-.42.23l-.27.85c.14.13.27.3.23.49h0Z"/>
      <path d="M20.18,14.62l-.72.57c-.01.26-.06.45-.22.58-5.41,4.17-7.98,11.01-6.66,17.72.04.19-.09.36-.25.49.33,1.38.79,2.78,1.41,4.04.22,0,.43.07.49.2s.02.31-.06.48c-.18.39.43.23.61.54,1.62,2.71,3.9,4.9,6.64,6.47.14.08.15.39.15.52-.16.11-.41.21-.58.12-2.86-1.62-5.2-3.92-6.89-6.73-.09-.15-.03-.35.03-.51.14-.36-.47-.25-.62-.57-.05-.1.03-.31.12-.46-.58-1.28-1.1-2.63-1.4-4.03l-.38-.23c-1.47-7.07,1.24-14.35,7-18.72.13-.1.3-.05.5.01l.53-.34c.09-.06.22-.11.3-.13v-.02Z"/>
      <path d="M43.38,42.79c2.29-2.64,3.72-4.96,4.63-8.47l-.26-.45c.44-1.93.49-3.87.33-5.82.19-.16.3-.33.27-.53-.03-.24-.11-.38-.47-.48-.94-6.89-6.43-12.64-12.97-14.38-.47-.12-.3-.48-.56-.51-.3-.02-.29.29-.61.23-1.79-.35-3.63-.43-5.43-.26-.09-.03-.26-.2-.35-.29l-.92.14c-.08.15-.2.35-.34.36s-.33-.11-.52-.22c-.09.33-.27.43-.56.51l-1.7.47c-.11.03-.36-.21-.46-.16-.66.32-.2.36-.53.62-.25.2-.42-.22-.8,0l-1.95,1.07c.54-.48,1.2-.79,1.89-1.12.48-.23.15-.45.45-.62.36-.2.42.31.94,0,.1-.06.18-.3.24-.46.61-.24,1.27-.44,1.93-.62.17-.05.4.12.54.24.09-.21.2-.43.33-.47.2-.06.4.06.5.27l.91-.12.28-.36c1.89-.21,3.76-.11,5.64.24.19.03.33.25.39.38.19.39.42-.18.82-.08,6.14,1.52,12.83,7.79,13.59,14.98.02.23-.4.31-.23.64.08.15.17.32.42.45.24,2.03.12,4.07-.32,6.07l-.41.27c-.78,3.18-2.35,6.17-4.72,8.47h.01Z"/>
      <path d="M39.95,45.56s-.15.17-.23.21c-1.23.7-2.45,1.31-3.8,1.74-2.01.65-4.06.96-6.16.9-.13.22-.29.33-.54.32-2.36-.13-4.62-.67-6.75-1.65l-.17-.44c-.27-.13-.56-.21-.73-.42.27.04.54.21.81.33.22-.11.44-.16.68-.06,1.98.88,4.06,1.35,6.24,1.45.2,0,.35.17.45.27.43.41.99-.11,1.77,0,2.22.29,6.48-1.52,8.44-2.64h-.01Z"/>
      <path d="M41.12,44.76c-.19.29-.87.63-1.17.8.26-.23.85-.67,1.17-.8Z"/>
      <path d="M43.38,42.79c-.54.52-1.58,1.68-2.26,1.97.02-.04.09-.13.13-.17.63-.47,1.26-1.01,1.81-1.6.08-.08.2-.15.31-.2h0Z"/>
    </g>
    <g>
      <path d="M27.85,34.86c.12-.31.16-.74.57-.84.21-.05.48.21.55.44.26.82-.28,1.01.19,1.5.16.17.17.48-.09.57-.11-.09-.24-.24-.39-.45-.63.74-1.3,1.45-2.11,2.08l.71.74c-.73,1.21-1.27,1.45-1.51,3.11,2.21-.85,4.01-1.9,5.68-3.49l-.51-1.23-1.43-3.14c-.18-.4.11-.96.34-1.33l1.54,1.7.16.15s-.02.16-.07.18c-.29.14-.47-.36-.75-.25.23.7.52,1.27.84,1.9.59,1.15.48,2.41-.32,3.41-1.25,1.56-3.75,2.8-5.63,3.49-.21.95.39,2.61,1.42,2.59s2.35-1.48,2.97-2.24,1.23-1.56,1.99-2.24c1.76-1.59,3.82-1.98,5.89-3.09l-.3-1.47c-.2-.97-.03-2.65.89-3.18.28-.16.9-.24,1.18,0,.78.67,1.12,1.81.96,2.8-.16,1.04-.69,1.89-1.53,2.53.48.76,1.31,1.16,2.2,1.03.73-.1,1.47-.47,1.94-1.01-.09-.56-.13-1.05-.19-1.58l-.14-1.49-.14-1.27-.14-1.12-.37-2.95-.67-5.27-.14-1.07-.17-1.33-.15-1.25-.15-1.22-.16-1.23c-.13-1.03-.28-.52.27-1.76.7.94,1.09,1.97,1.42,3.07l.06.21s-.16.09-.2.05l-.52-.54.11,1.02.17,2.06.76,6.54.25,2.1.17,1.4.15,1.2.14,1.12c.2,1.63.51,4.38-1.32,5.24-1.28.6-2.66.62-3.47-.7l-.48-.79c-1.74.72-3.44,1.37-5.05,2.32s-2.89,3.19-4.55,4.57c-.48.4-1.1.56-1.67.33-1.47-.58-1.78-1.59-2.02-3.09-1.93.3-4.12.61-5.46-1.04-.6-.73-.81-1.65-.88-2.59l-.1-1.28c-.79.64-1.43,1.52-2.64.88s-1.8-2.08-1.5-3.46c.2-.92.53-1.76.9-2.64-.81-.27-1.5-.78-1.94-1.54-.4-.7-.33-1.6-.15-2.38.13-.56.98-2.24,1.33-2.78-.79-1.77.63-3.52,1.67-4.89-.15-.84,0-1.68.38-2.48,2.44-1.39,4.92-2.57,7.58-3.51,2.48-.88,4.95-1.63,7.5-2.17.49-.11,1.11.27,1.24.66.43,1.24-1.42,3.46-2.25,4.34-.51.55-1.06,1.18-1.51,1.77-.01.02-.09.07-.1.09-.03.02-.09-.1-.07-.14.94-2.4,3.62-3.82,3.29-4.85-.05-.16-.25-.44-.48-.44-.65,0-1.26,0-1.87.11-1.67.32-2.77.86-4.37,1.3l-4.27,1.66c-1.6.62-3.09,1.35-4.58,2.23l7.54,5.25c1.02-.54,2.12-.77,3.3-.68l-.87-3.18c-.23-1.1-.61-2.46.13-3.58l1.23,2.46c-.26-.07-.37-.14-.64-.26.09,1.29.37,2.58,1.02,3.72.43.76,1.12,1.2,1.75,1.75.31.42.2,1.12.03,1.64-1.21-1.17-2.9-1.58-4.48-.95,2.03,1.61,3.93,3.23,5.83,4.92.4.36.79.6,1.31.84l-.13-1.45-.49-4.16-.29-2.21-.15-1.2-.16-1.4c-.11-.94-.28-1.38.19-2.19.63.76,1.39,2.31,1.5,3.3l-.71-.55.23,2.12.42,3.24.33,2.56.1.98.13,1c.34.59,2.15-.24,2.44-.79l-.23-2.08-.18-1.52-.14-.99-.58-4.36-1.01-7.01c-.09-.62-.13-1.13.29-1.78l.71,1.24c.35.62.61,1.28.81,2.02-.44-.01-.39-.39-.81-.51l.07.87c.08.95.2,1.86.33,2.82l.49,3.6.19,1.39.13.95.32,2.32.23,1.65c.3,2.11-.78,3.29-2.79,3.82-.02,1.14.13,1.08.05,2.31-.19,2.82-.78,3.15-.67,2.57.09-.5.08-1.04.04-1.55l-.16-1.91c-.04-.5-.1-.96-.17-1.46-.96-.3-1.67-.84-2.39-1.51l-3.25-2.97c-.46-.42-.96-.81-1.52-1.08.75.91,1.42,1.6,1.72,2.66.2.69.29,1.49-.05,2.17-.27.53-.8.87-1.31,1.15-2.22,1.26-5.4,1.28-7.32,3.81-.05.5-.02,1.06.07,1.54.53,2.77,3.74,3.21,5.96,2.36l1.02-2.56-.88-.88c.18-.33.38-.61.64-.92l.43.11c.7-.6,1.42-1.26,1.93-2.1-.39-.24-.62-.58-.44-1.02h.01ZM14.14,32.05c.48.6,1.37.57,1.97.2,2.38-1.5,3.15-2.43,5.1-4.25l1.3-1.21-5.99-4.56c-.79,1.06-1.61,2.11-1.17,3.43.02.07.15.18.22.18.06,0,.2-.05.24-.09l.41-.47s.13-.04.17-.04.05.14.04.18c-.27.77-.85,1.49-1.59,1.91-.63,1.31-1.75,3.4-.69,4.72h-.01ZM18.32,37.58c2.61-3.04,6.29-2.88,9.29-5.16-.51-1.36-1.53-2.54-2.61-3.47l-1.47-1.23c-.82.57-1.52,1.12-2.23,1.77l-2.84,2.6c-.76.69-1.63,1.14-2.58,1.53-.77,1.42-1.66,3.85-.2,5.13,1.05.49,1.97-.37,2.66-1.17h-.02ZM28.65,35.22c.05-.23-.2-.51-.4-.53-.16.26.17.67.4.53ZM39.22,37.66c.27-.16.78-.42.84-.77.15-.85-.7-2.24-1.39-1.97-1.18.45-.47,2.31,0,3.06l.55-.32Z"/>
      <path d="M39.7,26.04c.37,3.4-.5,4.61-.45,3.94.06-.83-.08-3.05-.44-3.83-.43.29-1.19,1.02-1.58.99-.17-.01,1.43-1.31,1.54-1.51l-.27-2.2-.48-3.62-.35-2.26-.12-.65c-.15-.8-.26-.93.27-1.91.69,1.09,1.28,2.23,1.54,3.47-.26-.09-.39-.26-.56-.44l-.09-.09s-.15-.03-.14.01.05.17.06.22l.96,6.6c.26-.21.4-.44.54-.68-.2-.31-.45-.57-.5-.94-.05-.34.42-.83.75-.81.52.22.58.91.41,1.36-.11.28-.12.52-.12.86l-.36.04-.65.83c-.11.14.03.45.05.64v-.02ZM40.41,23.5c.24-.19-.02-.65-.29-.56-.1.04-.07.31-.02.4.04.07.24.21.31.16Z"/>
      <path d="M46,35.58c-.04.46-.27.9-.43,1.36-.22-.17-.12-.44-.14-.68l-.15-2.06-.17-2.12-.13-1.14-.16-1.19-.17-1.22-.85-6.01c-.06-.44-.36-.26.23-1.56.77,1.2,1.24,1.89,1.63,3.27-.38-.05-.43-.33-.81-.55.07.77.14,1.48.25,2.22l.13.94.16,1.09.13.85c.32,2.1.64,4.63.48,6.8Z"/>
      <path d="M41.38,31.28c.06.07-.46.96-.76,1.01l-1.1-.96-.68.91c-.49-.27-.89-.65-1.22-1.07l.6-1.03c.51.1,1.15,1.13,1.36.81l.56-.82c.46.24.74.55,1.06.93l.18.21h0Z"/>
      <path d="M20.87,16.13c-.2.08-.29.25-.49.15.17-.39.48-.61.87-.78,1.51-.69,3.04-1.23,4.59-1.82l1.44-.55c-.13.48-.55.69-.97.85,0,0-5.44,2.15-5.44,2.15Z"/>
      <path d="M21.37,39.28c.04.07.08.22.07.29s-.18.15-.23.11c-.13-.1-.39-.34-.46-.49-.11-.44.17-.96.6-1.15l4.27-1.87c.13-.06.31-.21.39-.08-.15.5-.59.71-1.03.9-1.34.56-2.61,1.1-3.91,1.77l.32.52h-.02Z"/>
      <path d="M36.48,45.54c-.33.13-.25-1.01-1.02-1.3-.3-.11-.57-.09-.68-.43-.07-.22-.17-.62.13-.78.28,0,.7.33.87.59l.61.95.14-1.27c.02-.22.27-.63.48-.67.34-.06.64.35.68.59,0,.08-.11.26-.18.29-.08.03-.23-.07-.32-.14l-.21-.16s-.22.08-.22.15c0,.59-.05,1.59-.28,2.16v.02Z"/>
      <path d="M24.03,23.55c-.21-.43-.56-.42-.92-.53-.27-.08-.4-.67-.16-.88.16-.14.54.03.69.17.33.31.52.65.82,1.09.09-.59-.03-1.92.76-2.16.18-.06.43.15.5.29.08.17,0,.54-.19.56-.19-.14-.34-.31-.56-.32-.29.27-.1,2.84-.43,2.66-.03-.02-.12-.09-.13-.12,0,0-.38-.76-.38-.76Z"/>
      <path d="M23.65,41.58c-.13.61-.47-.9-1.08-1.06l-.45-.12c-.15-.22-.15-.71.1-.84.58.17.83.74,1.23,1.2.07-.43-.07-1.86.41-2,.21-.06.62.31.67.51.03.11-.12.34-.21.37l-.48-.37s-.11.22-.1.29c.09.68.07,1.34-.08,2.01h-.01Z"/>
      <path d="M30.65,24.55c0,.45-.58-.99-1.22-1.15-.32-.08-.73-.14-.74-.53,0-.06.01-.17.02-.21.01-.05.18-.09.24-.07.55.14.92.54,1.34.96l.09-.61c.06-.39.13-.85.53-1.07.11-.06.34.07.4.17.08.12.12.38.05.5-.1.18-.29-.12-.53-.17-.07-.01-.19.15-.19.23v1.95h.01Z"/>
      <path d="M29.82,38.39c-.11.48-.53.83-.98.85-.14,0-.37-.11-.45-.2-.25-.32,0-1.35.21-1.83.57.09,1.37.51,1.22,1.18ZM29.48,38.36c-.08-.26-.51-.6-.76-.5-.2.09-.21.67-.04.8.22.17.76-.03.8-.3Z"/>
      <path d="M33.87,18.8c-.15.23-.47.55-.73.57-.46.03-.69-.48-.61-.86l.23-1.05c.39,0,.75.12,1.01.38s.33.62.11.96h0ZM33.65,18.42c-.05-.24-.5-.48-.67-.38-.21.12-.22.65-.05.77.24.17.78-.09.72-.39Z"/>
      <path d="M36.11,37.1c-.71.33-.99.86-1.15.53l.45-.56-.46-.68c.14-.39.47-.69.87-.78.09-.02.23.18.25.27s-.06.32-.14.29c-.15-.07-.31-.14-.4-.12-.12.02-.24.25-.16.35.39.49,1.04.02,1.31.02.05,0,.18.33-.56.67h0Z"/>
      <path d="M34.55,26.79c.07-.23.13-.42.29-.46.23.31.15.84-.15,1.07-.22.16-.52-.06-.62-.28-.37-.78-.41-1.72.04-2.53.31.59-.56,1.61.45,2.21h-.01Z"/>
      <path d="M20.65,21.33l.4-.13c.03.18,0,.37-.09.5-.08.12-.32.26-.46.21-.9-.3-.3-2.24.03-2.87.38.35-.59,1.6.12,2.28h0Z"/>
      <path d="M23.63,20.54l.4-.17c.12.3-.12.72-.45.74-.98.08-.44-2.37-.09-2.86.39.45-.57,1.46.13,2.28h.01Z"/>
      <path d="M41.3,28.57c.12.39-.07.8-.38.96-.19.1-.47-.23-.5-.42-.13-.84-.1-1.71.35-2.5.18.61-.54,1.64.17,2.3l.36-.35h0Z"/>
      <path d="M31.17,29.59l.44-.3c.16.29-.15.82-.46.85-.9.07-.53-2.19-.06-2.61.14.55-.53,1.4.08,2.06Z"/>
      <path d="M42.08,37.74l.13-.18s.14.14.13.2c-.04.22-.26.67-.52.72-.89.16-.43-2.52,0-2.76l-.19,1.03c-.07.36-.05.99.29,1.15.04.02.1-.09.15-.15h0Z"/>
      <path d="M37.33,21.03c.24.33-.03.92-.3.97-.13.02-.33-.1-.42-.22-.47-.68-.27-1.55.02-2.32.29.41-.36,1.49.37,1.98,0,0,.33-.41.33-.41Z"/>
      <path d="M39.7,43.1c.17.4-.12.92-.47,1.09-.27.13-.49-.32-.51-.57-.05-.7.08-1.36.32-2.06.42.26-.48,1.39.19,2.13l.47-.59Z"/>
      <path d="M46.83,29s.03.35,0,.47c0,.13-.27.25-.42.27-.74-.63-.34-1.99-.19-2.85.32.6-.16,1.36.17,2.24l.42-.12h.01Z"/>
      <path d="M24.36,45.21c.12.36-.09.7-.37.86-.19.11-.47-.13-.53-.33-.17-.54-.09-1.14.13-1.64.49-.04-.29.92.4,1.43l.38-.32h0Z"/>
      <path d="M28.87,18.41c.09.04.34-.3.43-.21.11.35-.2.78-.55.86-.55-.62-.5-1.61-.12-2.37.36.25-.4,1.44.24,1.72Z"/>
      <path d="M17.92,41.33c.21-.05.34-.08.42-.08.05.32-.2.67-.48.68-.66.02-.53-1.73.04-2.1.3-.19-.55,1.11.02,1.5Z"/>
      <path d="M35.55,30.21l-1.66.93c-.17-.29.06-.4.25-.51l1.74-1.01c.14.3-.11.46-.33.59Z"/>
      <path d="M24.54,32.82l-1.15-.97-.72.9c-.47-.31-.86-.67-1.19-1.07l.63-1.05c.46.31.79.6,1.21.98.37-.29.56-1.2.91-.85l1.04,1.05c-.2.36-.36.61-.72,1.01h-.01Z"/>
      <path d="M20.05,34.97c-.1.85-.54-.71-.94-.91-.31.1-.58,0-.74-.28-.13-.22-.04-.73.24-.78.54.22.78.71,1.2,1.18.17-.4.06-1.56.54-1.79.3-.14.7.3.65.57-.02.12-.09.28-.16.3-.23.08-.52-.74-.59-.13l-.21,1.84h0Z"/>
      <path d="M17.01,36.52l.4-.39c.2.3-.02.88-.4.93-.95.13-.45-2.14.02-2.63.22.4-.59,1.36-.02,2.09Z"/>
      <path d="M19,26.94c-.56.85-1.08,1.56-1.83,2.18-.66.54-1.27,1.11-2.03,1.52.51-.7,1.14-1.13,1.7-1.71.66-.67,1.32-1.34,1.83-2.13-.37-.24-.57-.53-.6-.86-.03-.38.11-.71.45-.92.1-.06.35-.11.45-.07.49.18.18,1.05.2,1.36.21.25.51.67.54.97,0,.05-.1.19-.14.17-.35-.16-.13-.22-.58-.52h0ZM18.84,26.1c.11-.02.1-.33.03-.43-.07-.09-.33-.12-.38.05-.04.12.22.4.35.39h0Z"/>
    </g>
  </g>
</svg>