<?xml version="1.0" encoding="UTF-8"?>
<svg id="Layer_1" xmlns="http://www.w3.org/2000/svg" version="1.1" viewBox="0 0 200 200">
  <!-- Generator: Adobe Illustrator 30.1.0, SVG Export Plug-In . SVG Version: 2.1.1 Build 136)  -->
  <defs>
    <style>
      .st0 {
        fill: #fff;
      }
    </style>
  </defs>
  <g>
    <path class="st0" d="M182.35,155.14c.27-.59.48-1.2.94-1.91,8.78-13.45,14.13-28.71,15.3-44.8l.4-5.55c.17-2.32.06-4.52-.07-6.88-.65-12.03-3.09-24.01-8.04-34.96-.99-.11-2.04-.41-2.2-.95-.2-.68.15-1.74.37-2.4.27-.85-.69-2.67-1.45-3.17-.42-.28-1.57-.55-2.13-.82-9.98-18.15-25.28-32.69-44.1-41.24l-2.18-.99C116.33,1.09,90.01.98,66.52,9.98c-1.2.46-2.03.19-3.13-.43-4.69,1.03-2.17,2.45-3.85,3.34l-6.68,3.54c-.52.27-1.62-.15-2.53-.53-.57.27-.16,2.97-1.65,3.05-.58.03-1.36-.22-2.11-.54l-3.2,2.24-.29,2.27c-7.52,5.72-14.07,12.27-19.72,19.9-.56.76-1.67.75-2.63.67l-4.61,6.77c1.02-2.33,2.75-4.73,4.15-6.97-.09-.66-.47-2.12-.11-2.62,5.9-8.03,12.77-14.91,20.65-20.87l2.4.42,3.08-2.38c.13-.74.31-2.04.84-2.23.77-.28,1.73-.07,2.87.21l.62-2.55,6.8-3.64c.79-.42,1.89,0,2.78.57.79-.25,2.02-.77,2.89-1.26.42-.36-.04-1.66.98-2.07,46.52-18.75,100.64.56,124.57,44.93.37.68.05,1.28-.32,2.18.92,4.59,2.59,2.69,3.64,4.3.4.61.03,1.83-.58,2.52,6,13.95,8.98,30.23,7.89,45.52-1.23,17.35-6.61,34.65-16.94,48.82Z"/>
    <path class="st0" d="M16.13,50.25c1.13,1.31.93,2.38.19,3.73C4.71,75.3,1.53,100.21,7.5,123.78c2.52,9.93,7.66,21.69,13.46,30.1,8.28,12.01,18.79,22.04,31.43,29.41.78.46.9,1.49.88,2.47,4.43,2.48,9.41,4.65,14.19,6.53.89-.78,1.81-1.23,3.01-.82,10.16,3.44,20.6,4.99,31.33,4.93,1.1,0,1.93.75,2.33,1.56.53-1,1.26-1.6,2.19-1.68l5.85-.53c.97-.09,1.83.46,2.62,1.36.47-.66,1.14-1.57,1.69-1.78.7-.27,1.66.34,2.31,1.07,7-1.22,14.4-3.31,20.97-6.36.22-1.22.78-2.11,1.82-2.58,5.26-2.43,9.96-5.27,14.77-8.54.58-.39,1.74-.1,2.37.18.1-.74.24-1.84.64-2.32.46-.55,1.8-.45,2.63-.05,2.35-1.48,3.95-3.7,6.08-4.85-1.82,1.95-3.92,3.74-5.69,5.36.02.85-.12,2.12-.67,2.39-.65.33-1.63.2-2.54-.04.18,1.2-.2,2.28-1.35,3.05-4.93,3.26-10.1,6.39-15.56,8.75-.54.23-1.84-.56-2.49-.76-6.53,2.95-13.92,4.96-20.84,6.43-.41,1.04-1.02,1.95-1.91,1.95-.63,0-1.41-.67-2.13-1.43-.57,1.31-1.46,2.04-2.88,2.15l-5.36.43c-.89.07-1.91-.69-2.47-1.34-.54.8-1.41,1.45-2.67,1.45-11.44.03-22.59-1.7-33.35-5.5l-1.03-2.11c-4.93-1.87-9.6-4.03-14.18-6.43-.47.31-1.78.84-2.23.57-13.18-7.7-24.51-18.03-32.87-30.83l-1.44-2.2c-5.82-8.91-9.99-18.71-12.59-29.01l-.52-2.07c-6.12-24.19-2.02-49.83,10.21-71.6.46-.83,1.93-.85,2.62-.84Z"/>
    <path class="st0" d="M178.52,160.37c.52-1.01,3.19-5.06,3.83-5.23-1.21,2.72-2.22,3.7-3.83,5.23Z"/>
    <path class="st0" d="M168.07,171.86l4.2-4.49,1.99-2.23c1.41-1.59,2.67-3.27,4.27-4.77-.61,1.18-1.45,2.35-2.44,3.46l-2.33,2.59c-1.72,1.92-3.33,4.18-5.69,5.45Z"/>
    <path class="st0" d="M12.4,78.53c-3.89,16.21-3.34,32.87,1.6,48.77.19.61-.53,1.64-.9,2.16l1.43,4.32,2.06.76c3.42,8.19,7.75,15.59,13.33,22.55.33.41.08,1.71-.08,2.33l2.07,2.57h2.2s3.33,3.42,3.33,3.42c.33.34.08,1.76.08,2.24l4.38,3.9,2.33-.22c17.91,14.31,40.38,21.58,63.18,19.63l1.83-.16c27.04-2.32,51.4-16.82,66.8-39.19l2.37-.49,3.92-6.71-.65-2.19c4.68-8.93,7.86-18.51,9.33-28.55.18-1.23.83-1.87,1.89-2.47-.54-.57-1.35-1.55-1.27-2.39.95-10.92.26-21.61-2.63-32.13-.29-1.06-.17-2.05.19-2.93-.5-.38-1.16-.88-1.45-1.24-.33-.41.16-1.76.35-2.19-.58-.48-1.42-1.22-1.74-2.07-2.28-6.02-4.95-11.62-8.46-16.99-.7-1.07-.69-2.18-.2-3.45-1.24-.06-2.31-.34-3.07-1.39-7.9-10.91-17.97-19.76-29.76-26.25-.74-.41-.89-1.5-1.1-2.29-.41-.45-1.76-1.1-2.39-1.25-.91.47-1.85.81-2.82.37-9.56-4.36-19.52-6.98-30.04-7.77-1.12-.08-1.55-.87-2.33-1.72-.54-.58-1.68.55-2.06,1.33-5.38.05-10.78.18-16.17.99-1.02.15-1.87-.48-2.49-1.24-16.58,2.77-32.37,9.57-44.7,20.91l-3.47,3.2-2.71,2.26c.54-1.46,1.83-2.13,2.89-3.1l2.95-2.71c12.39-11.39,28.32-18.27,44.93-21.03.32-.63.94-1.76,1.45-1.84,5.49-.84,10.89-1.12,16.47-1.08,1.31.01,1.37,1.34,2.35,1.81.9.44,1.29-1.63,2.9-1.5,11.43.93,22.5,3.8,32.72,8.73.19,1.32.61,2.01,1.34,2.53.94.67,2.24.05,3.26-.21,12.87,6.82,23.64,16.52,32.16,28.23.48.65.1,2.08-.06,2.78l2.36.59c3.95,6.08,7.11,12.38,9.67,19.22.26.7-.12,1.83-.39,2.26.44.32,1.3.91,1.55,1.34.29.49-.11,1.68-.35,2.27.32.24,1.37.98,1.51,1.48,3.1,11.19,4.03,22.49,3.07,34.05-.1,1.21-.86,1.94-1.91,2.39l1.38,1.89c-1.46,10.48-4.61,20.41-9.34,29.87-.55,1.11-1.49,1.5-2.6,1.62l-4.28,7.04c.25.78.86,1.42.21,2.38-30.54,44.58-93.44,54.51-136.2,20.55-.63-.5-1.09-1.03-.75-2.41l-4.53-4.05-2.12.03c-1.82-1.79-4.47-3.17-3.54-5.8l-2.27-2.51c-1.22.11-2.05-.03-2.73-.9-5.27-6.65-9.42-13.79-12.89-21.54-.55-1.23-.29-1.99.31-3.31-.34-1.14-1.11-3.23-1.58-4.34-1.06-.46-1.89-.79-2.21-1.87-4.94-16.61-5.5-34-1.27-50.85l1.93-1.07,1-3.93c-.34-.61-1.06-1.7-.87-2.22.21-.57,1.15-1.24,1.71-1.56-.25-.64-.54-1.75-.18-2.65,4.22-10.55,10.02-20.31,17.73-28.65,1.29.14,2.17-.13,3.28-.72-1.57.27-.26,2.4-.75,3.01-6.86,8.3-13.02,17.44-16.75,27.67-.34.92-1.31,1.55-1.91,1.86.28.54.66,1.7.37,2.31-.24.51-1.09.89-1.99,1.11l-1.28,4.05c.67.63,1.29,1.44,1.08,2.33Z"/>
    <path class="st0" d="M53.09,26.57l-3.46,2.71c-.07,1.23-.27,2.16-1.07,2.77-25.82,19.91-38.11,52.59-31.8,84.61.18.91-.45,1.71-1.18,2.33,1.59,6.57,3.79,13.27,6.75,19.27,1.03.04,2.04.31,2.32.94s.08,1.5-.27,2.29c-.84,1.85,2.03,1.08,2.93,2.59,7.73,12.95,18.6,23.41,31.73,30.88.69.39.73,1.87.72,2.49-.77.52-1.95,1.02-2.75.56-13.66-7.73-24.83-18.69-32.91-32.12-.42-.7-.13-1.65.17-2.42.66-1.73-2.26-1.21-2.97-2.7-.23-.48.14-1.47.56-2.22-2.76-6.13-5.23-12.56-6.66-19.26l-1.83-1.11c-7.02-33.74,5.94-68.51,33.41-89.39.62-.47,1.42-.26,2.38.07l2.53-1.64c.41-.27,1.03-.52,1.43-.64Z"/>
    <path class="st0" d="M163.89,161.06c10.91-12.6,17.75-23.66,22.09-40.43l-1.22-2.14c2.1-9.22,2.34-18.46,1.57-27.81.92-.79,1.43-1.56,1.29-2.54-.16-1.13-.52-1.81-2.22-2.31-4.49-32.9-30.68-60.35-61.94-68.66-2.24-.6-1.44-2.31-2.66-2.41-1.44-.12-1.39,1.4-2.93,1.1-8.55-1.69-17.32-2.06-25.93-1.22-.43-.12-1.24-.94-1.68-1.37l-4.41.66c-.37.71-.97,1.65-1.63,1.72s-1.59-.51-2.46-1.06c-.45,1.59-1.3,2.07-2.68,2.45l-8.12,2.25c-.54.15-1.72-.99-2.2-.75-3.14,1.53-.94,1.71-2.52,2.95-1.19.94-1.99-1.07-3.84-.02l-9.3,5.12c2.56-2.28,5.74-3.77,9.01-5.35,2.29-1.11.72-2.14,2.14-2.94,1.71-.97,2,1.5,4.48.03.49-.29.84-1.45,1.15-2.2,2.92-1.16,6.04-2.08,9.23-2.98.81-.23,1.91.59,2.59,1.12.42-1.01.95-2.07,1.59-2.25.95-.27,1.92.27,2.38,1.29l4.36-.56,1.34-1.72c9.05-1.02,17.95-.53,26.93,1.13.9.17,1.59,1.21,1.88,1.83.89,1.87,2-.87,3.91-.4,29.3,7.26,61.28,37.18,64.87,71.53.11,1.1-1.9,1.48-1.11,3.04.37.73.82,1.54,2.01,2.17,1.16,9.68.55,19.43-1.51,28.99l-1.93,1.31c-3.72,15.18-11.23,29.47-22.52,40.44Z"/>
    <path class="st0" d="M147.51,174.3c-.26.23-.73.82-1.08,1.02-5.88,3.34-11.69,6.23-18.16,8.31-9.6,3.08-19.4,4.57-29.43,4.28-.62,1.05-1.37,1.58-2.56,1.51-11.25-.63-22.07-3.18-32.24-7.86l-.8-2.12c-1.27-.61-2.68-1-3.5-2,1.29.18,2.6,1.01,3.87,1.59,1.03-.54,2.09-.77,3.22-.27,9.47,4.18,19.4,6.44,29.8,6.94.93.04,1.66.81,2.16,1.28,2.07,1.97,4.71-.55,8.44-.07,10.62,1.37,30.93-7.24,40.28-12.62Z"/>
    <path class="st0" d="M153.09,170.47c-.9,1.4-4.14,3-5.57,3.83,1.23-1.09,4.06-3.18,5.57-3.83Z"/>
    <path class="st0" d="M163.89,161.06c-2.57,2.5-7.55,8-10.8,9.41.12-.18.42-.63.64-.79,3.02-2.25,6.04-4.84,8.66-7.65.36-.39.93-.72,1.5-.96Z"/>
  </g>
  <g>
    <path class="st0" d="M89.74,123.19c.58-1.47.75-3.53,2.73-4.01,1-.25,2.28,1,2.64,2.12,1.26,3.93-1.32,4.83.93,7.14.77.79.8,2.3-.43,2.75-.51-.41-1.13-1.17-1.88-2.14-3.02,3.53-6.23,6.91-10.08,9.91l3.41,3.55c-3.49,5.78-6.07,6.95-7.22,14.85,10.56-4.07,19.16-9.07,27.14-16.67l-2.42-5.86-6.85-15.01c-.88-1.93.52-4.61,1.61-6.35l7.36,8.13.77.74c.17.17-.1.76-.32.86-1.41.66-2.24-1.7-3.6-1.17,1.08,3.35,2.49,6.08,4.01,9.06,2.8,5.47,2.3,11.49-1.53,16.26-5.96,7.45-17.93,13.39-26.89,16.65-1.01,4.53,1.88,12.44,6.76,12.36,4.91-.08,11.21-7.04,14.18-10.72s5.89-7.45,9.52-10.72c8.42-7.58,18.24-9.44,28.11-14.77l-1.43-7.04c-.95-4.65-.14-12.64,4.27-15.2,1.32-.77,4.29-1.14,5.63.02,3.7,3.22,5.35,8.64,4.6,13.37-.78,4.97-3.28,9-7.28,12.1,2.29,3.64,6.28,5.53,10.51,4.93,3.5-.5,7-2.23,9.26-4.83-.42-2.69-.64-5-.89-7.54l-.68-7.11-.67-6.08-.65-5.36-1.79-14.08-3.2-25.18-.65-5.09-.79-6.36-.73-5.96-.71-5.8-.74-5.88c-.62-4.91-1.35-2.48,1.31-8.38,3.34,4.51,5.21,9.43,6.77,14.66l.29.99c.07.23-.78.42-.95.25l-2.49-2.58.52,4.85.83,9.85,3.64,31.21,1.19,10.02.8,6.69.69,5.73.66,5.35c.96,7.78,2.41,20.92-6.32,25-6.13,2.86-12.7,2.95-16.57-3.35l-2.31-3.75c-8.31,3.42-16.42,6.52-24.09,11.07-8.03,4.76-13.82,15.23-21.71,21.82-2.3,1.92-5.27,2.65-7.96,1.59-7-2.76-8.49-7.61-9.64-14.75-9.23,1.45-19.66,2.9-26.05-4.98-2.84-3.5-3.86-7.89-4.2-12.35l-.47-6.12c-3.78,3.08-6.82,7.24-12.58,4.22-5.94-3.11-8.59-9.93-7.17-16.5.95-4.4,2.51-8.38,4.29-12.59-3.89-1.27-7.15-3.71-9.25-7.38-1.91-3.34-1.59-7.64-.73-11.38.61-2.69,4.67-10.7,6.34-13.29-3.77-8.45,3.03-16.79,7.97-23.34-.74-4.02-.04-8.04,1.79-11.84,11.65-6.65,23.51-12.28,36.17-16.77,11.84-4.2,23.66-7.78,35.79-10.36,2.36-.5,5.28,1.27,5.94,3.17,2.05,5.93-6.8,16.53-10.72,20.72-2.44,2.61-5.08,5.64-7.23,8.44-.07.09-.42.35-.5.43-.12.11-.41-.46-.33-.68,4.51-11.44,17.31-18.25,15.69-23.17-.26-.77-1.17-2.11-2.27-2.12-3.09-.03-6.01-.04-8.95.52-7.97,1.53-13.25,4.09-20.89,6.2l-20.37,7.93c-7.62,2.97-14.75,6.45-21.87,10.66l35.98,25.05c4.89-2.59,10.11-3.69,15.78-3.25l-4.15-15.18c-1.08-5.26-2.91-11.77.63-17.1l5.86,11.76c-1.22-.32-1.78-.65-3.07-1.23.42,6.18,1.78,12.31,4.85,17.77,2.03,3.61,5.32,5.72,8.35,8.36,1.48,2,.95,5.35.15,7.85-5.76-5.58-13.85-7.54-21.38-4.54,9.71,7.71,18.79,15.42,27.82,23.49,1.91,1.71,3.76,2.85,6.25,4.02l-.63-6.94-2.34-19.87-1.36-10.54-.71-5.73-.77-6.7c-.51-4.48-1.35-6.59.9-10.45,3.02,3.63,6.64,11.02,7.16,15.76l-3.39-2.63,1.11,10.14,1.99,15.47,1.57,12.23.5,4.69.63,4.79c1.64,2.84,10.27-1.16,11.63-3.78l-1.11-9.94-.84-7.27-.66-4.74-2.76-20.82-4.83-33.49c-.42-2.94-.61-5.41,1.39-8.5l3.37,5.91c1.69,2.96,2.94,6.11,3.85,9.64-2.1-.07-1.87-1.85-3.85-2.43l.35,4.14c.38,4.55.95,8.9,1.58,13.47l2.35,17.21.91,6.65.61,4.53,1.55,11.07,1.1,7.87c1.41,10.1-3.74,15.73-13.32,18.23-.1,5.46.62,5.17.22,11.03-.92,13.45-3.71,15.04-3.21,12.25.42-2.38.38-4.96.17-7.39l-.78-9.14c-.2-2.37-.47-4.58-.83-6.96-4.56-1.43-7.97-4.03-11.42-7.19l-15.5-14.19c-2.2-2.02-4.59-3.87-7.28-5.14,3.6,4.36,6.77,7.66,8.21,12.68.95,3.31,1.37,7.13-.23,10.35-1.27,2.54-3.84,4.15-6.23,5.51-10.62,6.03-25.78,6.13-34.95,18.2-.22,2.38-.11,5.07.32,7.36,2.51,13.21,17.87,15.31,28.48,11.26l4.87-12.22-4.21-4.18c.87-1.59,1.84-2.9,3.07-4.41l2.05.53c3.32-2.87,6.79-6.03,9.21-10.01-1.88-1.16-2.95-2.75-2.12-4.87ZM24.26,109.79c2.29,2.84,6.55,2.74,9.4.94,11.36-7.15,15.04-11.61,24.36-20.29l6.19-5.76-28.59-21.78c-3.79,5.08-7.68,10.08-5.61,16.38.12.35.71.88,1.05.88.27,0,.96-.23,1.15-.45l1.95-2.25c.11-.13.62-.18.8-.19s.25.67.19.86c-1.3,3.69-4.06,7.09-7.59,9.12-3.03,6.25-8.36,16.21-3.29,22.52ZM44.21,136.21c12.45-14.5,30.03-13.74,44.36-24.65-2.43-6.49-7.29-12.13-12.46-16.59l-7.02-5.86c-3.94,2.71-7.25,5.34-10.67,8.46l-13.58,12.42c-3.61,3.3-7.77,5.45-12.34,7.31-3.66,6.79-7.93,18.39-.98,24.48,5.01,2.35,9.43-1.79,12.68-5.57ZM93.55,124.91c.25-1.08-.96-2.42-1.89-2.52-.76,1.23.79,3.2,1.89,2.52ZM144.02,136.59c1.29-.75,3.7-2,3.99-3.66.71-4.05-3.34-10.68-6.64-9.43-5.61,2.13-2.25,11.03.04,14.59l2.6-1.51Z"/>
    <path class="st0" d="M146.33,81.1c1.79,16.21-2.36,22-2.14,18.8.27-3.95-.4-14.54-2.12-18.29-2.08,1.38-5.68,4.87-7.55,4.73-.81-.06,6.84-6.25,7.35-7.21l-1.3-10.48-2.27-17.26-1.67-10.78-.59-3.1c-.73-3.81-1.24-4.43,1.3-9.12,3.29,5.2,6.13,10.66,7.36,16.56-1.26-.41-1.85-1.22-2.66-2.09l-.42-.45c-.13-.14-.71-.13-.67.05s.25.79.29,1.03l4.59,31.49c1.25-1,1.9-2.1,2.56-3.26-.96-1.48-2.13-2.73-2.37-4.5-.22-1.63,2.03-3.95,3.56-3.88,2.48,1.06,2.77,4.33,1.94,6.51-.51,1.34-.59,2.46-.59,4.09l-1.73.18-3.11,3.95c-.51.65.15,2.14.25,3.04ZM149.7,68.95c1.12-.89-.08-3.13-1.39-2.65-.46.17-.34,1.46-.09,1.89.2.36,1.16,1.02,1.48.76Z"/>
    <path class="st0" d="M176.42,126.63c-.17,2.19-1.3,4.31-2.06,6.47-1.06-.82-.58-2.11-.66-3.25l-.7-9.82-.79-10.12-.64-5.43-.77-5.7-.81-5.83-4.07-28.7c-.3-2.11-1.71-1.23,1.1-7.47,3.69,5.74,5.93,9.03,7.77,15.62-1.82-.24-2.03-1.57-3.86-2.64.32,3.66.68,7.05,1.18,10.6l.64,4.51.76,5.22.62,4.08c1.52,10.01,3.08,22.11,2.28,32.45Z"/>
    <path class="st0" d="M154.34,106.12c.29.34-2.19,4.58-3.61,4.81l-5.24-4.57-3.26,4.35c-2.35-1.28-4.26-3.09-5.84-5.1l2.84-4.9c2.45.49,5.49,5.37,6.5,3.89l2.69-3.91c2.21,1.15,3.51,2.63,5.07,4.44l.86,1Z"/>
    <path class="st0" d="M56.42,33.79c-.94.37-1.37,1.21-2.35.71.82-1.88,2.31-2.91,4.13-3.74,7.22-3.28,14.53-5.86,21.94-8.7l6.86-2.63c-.63,2.31-2.65,3.29-4.61,4.07l-25.97,10.28Z"/>
    <path class="st0" d="M58.8,144.33c.2.33.37,1.07.32,1.37s-.87.72-1.11.54c-.6-.46-1.84-1.64-2.21-2.33-.52-2.1.8-4.59,2.85-5.48l20.41-8.91c.62-.27,1.48-.98,1.84-.41-.7,2.38-2.83,3.4-4.92,4.28-6.38,2.7-12.46,5.24-18.69,8.47l1.51,2.47Z"/>
    <path class="st0" d="M130.94,174.22c-1.57.6-1.2-4.81-4.87-6.19-1.43-.54-2.73-.45-3.25-2.04-.34-1.03-.81-2.94.61-3.71,1.34-.01,3.32,1.56,4.14,2.82l2.93,4.53.65-6.06c.11-1.05,1.29-3,2.29-3.18,1.62-.29,3.07,1.66,3.25,2.83.06.37-.52,1.24-.86,1.36-.39.15-1.09-.34-1.51-.66l-1-.77c-.23-.18-1.05.4-1.05.74.04,2.81-.22,7.61-1.33,10.34Z"/>
    <path class="st0" d="M71.51,69.22c-1.01-2.04-2.66-2.03-4.39-2.52-1.29-.37-1.89-3.2-.78-4.18.74-.66,2.57.13,3.29.82,1.57,1.5,2.48,3.11,3.92,5.18.44-2.81-.14-9.14,3.63-10.32.88-.27,2.06.74,2.38,1.4.4.83-.03,2.57-.89,2.66-.89-.66-1.64-1.49-2.67-1.51-1.4,1.3-.48,13.57-2.03,12.7-.16-.09-.56-.41-.64-.58l-1.8-3.65Z"/>
    <path class="st0" d="M69.7,155.28c-.63,2.89-2.24-4.29-5.17-5.06l-2.15-.57c-.71-1.04-.71-3.37.46-4,2.77.83,3.95,3.55,5.89,5.74.32-2.06-.35-8.9,1.95-9.55,1.01-.29,2.94,1.47,3.2,2.43.14.51-.56,1.64-1.02,1.78l-2.29-1.77c-.2.17-.55,1.06-.5,1.4.45,3.24.31,6.42-.38,9.59Z"/>
    <path class="st0" d="M103.11,73.97c0,2.14-2.76-4.74-5.81-5.47-1.53-.37-3.49-.66-3.52-2.52,0-.3.06-.82.09-1.02.05-.26.85-.43,1.13-.35,2.64.67,4.38,2.56,6.4,4.58l.45-2.9c.29-1.87.64-4.08,2.54-5.12.54-.29,1.62.34,1.93.81.37.56.56,1.81.23,2.39-.48.84-1.37-.55-2.52-.8-.32-.07-.92.74-.92,1.07v8.33s0,1,0,1Z"/>
    <path class="st0" d="M99.15,140.08c-.51,2.29-2.54,3.94-4.67,4.05-.65.03-1.79-.51-2.13-.96-1.2-1.55-.01-6.46.99-8.72,2.74.42,6.52,2.44,5.82,5.63ZM97.54,139.9c-.39-1.22-2.45-2.85-3.65-2.41-.96.42-.98,3.21-.19,3.83,1.07.83,3.61-.14,3.84-1.42Z"/>
    <path class="st0" d="M118.48,46.51c-.72,1.1-2.24,2.62-3.49,2.7-2.21.14-3.32-2.29-2.92-4.12l1.08-5c1.87-.03,3.57.57,4.81,1.83,1.18,1.21,1.6,2.96.53,4.6ZM117.41,44.72c-.25-1.13-2.38-2.3-3.2-1.83-.99.57-1.05,3.1-.22,3.69,1.13.8,3.73-.42,3.42-1.86Z"/>
    <path class="st0" d="M129.17,133.89c-3.39,1.58-4.74,4.12-5.49,2.53l2.17-2.67-2.2-3.23c.66-1.88,2.23-3.31,4.14-3.71.42-.09,1.12.86,1.18,1.29s-.3,1.53-.66,1.39c-.73-.32-1.47-.68-1.91-.59-.57.11-1.16,1.19-.77,1.67,1.86,2.34,4.96.11,6.24.12.26,0,.85,1.56-2.7,3.21Z"/>
    <path class="st0" d="M121.71,84.65c.33-1.1.6-2,1.39-2.21,1.09,1.48.73,4.03-.73,5.09-1.06.77-2.48-.28-2.98-1.34-1.77-3.74-1.95-8.24.18-12.1,1.48,2.81-2.67,7.7,2.14,10.57Z"/>
    <path class="st0" d="M55.38,58.61l1.91-.62c.12.84,0,1.76-.44,2.41-.39.58-1.55,1.23-2.22,1.01-4.29-1.41-1.44-10.7.15-13.71,1.8,1.66-2.83,7.63.59,10.9Z"/>
    <path class="st0" d="M69.58,54.84l1.93-.79c.6,1.42-.55,3.42-2.14,3.55-4.69.39-2.09-11.33-.41-13.67,1.86,2.14-2.74,6.96.63,10.91Z"/>
    <path class="st0" d="M153.96,93.17c.57,1.87-.33,3.8-1.82,4.6-.9.49-2.24-1.09-2.39-2.03-.62-4-.49-8.14,1.68-11.93.84,2.89-2.57,7.84.8,11l1.72-1.65Z"/>
    <path class="st0" d="M105.59,98.07l2.11-1.44c.78,1.38-.7,3.92-2.19,4.04-4.28.34-2.51-10.46-.29-12.44.67,2.64-2.55,6.7.37,9.85Z"/>
    <path class="st0" d="M157.69,136.93l.63-.84c.15-.2.67.67.62.94-.19,1.07-1.22,3.18-2.49,3.42-4.27.78-2.06-12.04.05-13.19l-.92,4.94c-.32,1.74-.22,4.74,1.4,5.47.18.08.46-.43.69-.74Z"/>
    <path class="st0" d="M135.01,57.19c1.14,1.58-.15,4.38-1.42,4.62-.61.12-1.57-.45-1.99-1.06-2.25-3.22-1.27-7.4.07-11.09,1.39,1.95-1.73,7.11,1.78,9.47l1.56-1.94Z"/>
    <path class="st0" d="M146.3,162.53c.81,1.91-.58,4.41-2.26,5.2-1.3.61-2.35-1.53-2.44-2.71-.26-3.34.39-6.52,1.54-9.83,2.02,1.25-2.29,6.62.92,10.17l2.24-2.83Z"/>
    <path class="st0" d="M180.35,95.22c.06.19.12,1.67.05,2.24-.07.6-1.28,1.17-2,1.27-3.52-3.01-1.62-9.48-.91-13.62,1.55,2.87-.75,6.47.83,10.69l2.02-.58Z"/>
    <path class="st0" d="M73.06,172.61c.58,1.74-.42,3.34-1.75,4.11-.92.53-2.24-.64-2.54-1.58-.82-2.58-.44-5.47.6-7.85,2.34-.19-1.4,4.39,1.89,6.84l1.79-1.52Z"/>
    <path class="st0" d="M94.58,44.68c.44.19,1.61-1.44,2.03-1,.52,1.68-.94,3.75-2.63,4.1-2.64-2.94-2.4-7.67-.56-11.29,1.73,1.19-1.92,6.86,1.15,8.19Z"/>
    <path class="st0" d="M42.33,154.09c.99-.25,1.64-.4,2.02-.36.25,1.52-.97,3.19-2.3,3.22-3.17.09-2.55-8.27.17-10.01,1.42-.91-2.61,5.29.1,7.15Z"/>
    <path class="st0" d="M126.48,101.01l-7.91,4.45c-.79-1.37.28-1.91,1.2-2.44l8.31-4.82c.68,1.43-.5,2.19-1.6,2.81Z"/>
    <path class="st0" d="M73.92,113.45l-5.5-4.65-3.46,4.29c-2.24-1.47-4.09-3.21-5.69-5.12l2.99-4.99c2.18,1.47,3.75,2.84,5.78,4.7,1.79-1.41,2.67-5.73,4.33-4.06l4.98,5.02c-.94,1.73-1.71,2.91-3.44,4.82Z"/>
    <path class="st0" d="M52.5,123.75c-.46,4.08-2.58-3.41-4.47-4.34-1.48.46-2.77-.04-3.55-1.35-.63-1.06-.18-3.51,1.14-3.74,2.57,1.06,3.72,3.38,5.73,5.64.82-1.9.29-7.46,2.56-8.53,1.42-.67,3.32,1.43,3.12,2.72-.08.55-.41,1.32-.74,1.44-1.08.4-2.48-3.53-2.81-.61l-.99,8.77Z"/>
    <path class="st0" d="M37.97,131.13l1.92-1.85c.97,1.44-.12,4.21-1.92,4.45-4.52.62-2.16-10.22.07-12.55,1.04,1.91-2.82,6.52-.08,9.96Z"/>
    <path class="st0" d="M47.46,85.37c-2.67,4.04-5.15,7.47-8.74,10.4-3.13,2.56-6.04,5.3-9.68,7.28,2.43-3.35,5.45-5.42,8.14-8.14,3.17-3.22,6.29-6.38,8.72-10.17-1.76-1.13-2.72-2.55-2.85-4.1-.15-1.81.53-3.4,2.15-4.39.48-.29,1.65-.52,2.13-.34,2.36.87.85,4.99.94,6.52,1.01,1.21,2.43,3.2,2.6,4.63.03.22-.47.88-.67.79-1.67-.76-.63-1.05-2.75-2.47ZM46.71,81.36c.54-.08.49-1.59.12-2.07-.32-.43-1.56-.59-1.79.23-.17.6,1.05,1.93,1.67,1.84Z"/>
  </g>
</svg>